<svg width="424" height="314" viewBox="0 0 424 314" fill="none" xmlns="http://www.w3.org/2000/svg">
<g clip-path="url(#clip0_41_70)">
<path d="M339.622 231.602H59.5953C57.1002 231.599 54.7081 230.788 52.9438 229.347C51.1795 227.906 50.187 225.951 50.1841 223.913V37.6275C50.187 35.589 51.1795 33.6348 52.9438 32.1933C54.7081 30.7519 57.1002 29.9411 59.5953 29.9388H339.622C342.118 29.9411 344.51 30.7519 346.274 32.1933C348.038 33.6348 349.031 35.589 349.034 37.6275V223.913C349.031 225.951 348.038 227.906 346.274 229.347C344.51 230.788 342.118 231.599 339.622 231.602Z" fill="#E6E6E6"/>
<path d="M259.322 113.244H217.921C217.057 113.243 216.229 112.899 215.619 112.287C215.008 111.676 214.665 110.846 214.664 109.981V89.3379C214.665 88.4728 215.008 87.6435 215.619 87.0318C216.229 86.4201 217.057 86.0761 217.921 86.0751H259.322C260.186 86.0761 261.014 86.4201 261.624 87.0318C262.235 87.6435 262.578 88.4728 262.579 89.3379C265.141 96.6431 265.505 103.585 262.579 109.981C262.578 110.846 262.235 111.676 261.624 112.287C261.014 112.899 260.186 113.243 259.322 113.244Z" fill="#E6E6E6"/>
<path d="M252.521 124.058H224.631C223.81 124.059 223.023 123.734 222.442 123.153C221.861 122.573 221.534 121.786 221.532 120.964C221.53 120.142 221.855 119.353 222.434 118.771C223.013 118.188 223.799 117.86 224.619 117.858H252.521C253.34 117.86 254.126 118.187 254.705 118.768C255.284 119.349 255.609 120.137 255.609 120.958C255.609 121.779 255.284 122.567 254.705 123.148C254.126 123.729 253.34 124.056 252.521 124.058Z" fill="#E6E6E6"/>
<path d="M233.769 92.9019C233.448 92.9031 233.14 93.0313 232.914 93.2588C232.687 93.4862 232.559 93.7943 232.559 94.1158V107.255C232.559 107.467 232.614 107.676 232.72 107.86C232.826 108.044 232.978 108.197 233.161 108.303C233.344 108.41 233.552 108.466 233.763 108.467C233.975 108.468 234.184 108.413 234.368 108.308L245.944 101.695C246.13 101.589 246.285 101.436 246.392 101.25C246.5 101.064 246.556 100.854 246.555 100.639C246.555 100.425 246.497 100.214 246.389 100.029C246.281 99.8443 246.125 99.6915 245.938 99.5864L234.362 93.0592C234.181 92.9564 233.977 92.9022 233.769 92.9019Z" fill="#E6E6E6"/>
<path d="M402.665 288.861C402.027 288.047 401.16 287.444 400.176 287.129C399.192 286.814 398.137 286.801 397.146 287.093L396.929 287.158L394.985 294.76C394.694 293.627 394.071 291.069 393.678 288.565L393.644 288.358L393.451 288.443C391.419 289.343 389.508 290.497 387.765 291.877C384.677 294.358 382.165 297.484 380.404 301.037C378.643 304.59 377.675 308.484 377.569 312.449L377.565 312.595L377.562 312.686L377.819 312.595L383.342 310.617C385.788 310.833 388.25 310.499 390.551 309.64C392.851 308.78 394.93 307.417 396.638 305.65C398.869 303.292 400.4 300.259 401.88 297.325C402.313 296.47 402.757 295.588 403.211 294.74C403.717 293.818 403.935 292.764 403.838 291.716C403.741 290.668 403.333 289.674 402.665 288.861Z" fill="#F2F2F2"/>
<path d="M261.617 94.9827C261.728 95.5582 261.964 96.1024 262.307 96.5769C262.651 97.0514 263.094 97.4447 263.605 97.7291C264.117 98.0134 264.685 98.182 265.268 98.2228C265.852 98.2636 266.437 98.1757 266.984 97.9653L283.491 117.203L285.581 110.101L269.215 92.5009C268.802 91.6053 268.074 90.8927 267.171 90.4982C266.268 90.1038 265.252 90.0549 264.316 90.3608C263.379 90.6667 262.587 91.3062 262.09 92.1581C261.593 93.0099 261.424 94.015 261.617 94.9827Z" fill="#FFB8B8"/>
<path d="M328.145 307.996H322.682L320.084 286.887H328.146L328.145 307.996Z" fill="#FFB6B6"/>
<path d="M327.999 306.208L322.167 303.832L322 303.763L318.779 306.208C316.961 306.209 315.217 306.932 313.932 308.22C312.646 309.508 311.923 311.255 311.923 313.077V313.3H329.537V306.208H327.999Z" fill="#2F2E41"/>
<path d="M367.115 307.996H361.652L359.053 286.887H367.116L367.115 307.996Z" fill="#FFB6B6"/>
<path d="M366.969 306.208L361.137 303.832L360.97 303.763L357.749 306.208C355.931 306.209 354.187 306.932 352.902 308.22C351.616 309.508 350.894 311.255 350.893 313.077V313.3H368.507V306.208H366.969Z" fill="#2F2E41"/>
<path d="M354.222 181.942C354.222 181.942 361.074 189.084 361.074 194.951C361.074 200.819 359.361 208.876 361.074 210.639C362.787 212.402 364.928 214.547 362.359 217.122C359.789 219.696 358.505 220.983 360.218 222.699C361.931 224.415 361.074 254.446 361.074 254.446L370.067 294.773H358.737L344.373 254.446L340.518 220.983L328.054 253.159L329.43 295.119L317.586 294.773L312.683 250.155C312.683 250.155 319.963 207.714 318.678 206.626C317.393 205.538 318.678 203.342 318.678 203.342L322.104 187.091L354.222 181.942Z" fill="#2F2E41"/>
<path d="M340.807 131.31C340.807 131.31 343.137 122.113 332.403 119.476C321.67 116.839 290.988 113.452 290.988 113.452L275.482 96.9685L270.228 104.612L287.61 126.252L328.796 134.727L340.807 131.31Z" fill="#3F3D56"/>
<path d="M272.781 104.049C273.263 103.424 273.64 102.725 273.897 101.979L276.121 96.5046L275.543 96.4805C274.745 96.33 273.923 96.3502 273.133 96.5399C272.342 96.7297 271.601 97.0846 270.957 97.5814C270.313 98.0783 269.781 98.7058 269.396 99.423C269.011 100.14 268.782 100.931 268.723 101.743C268.65 102.445 268.776 103.154 269.087 103.788C269.245 104.103 269.475 104.375 269.758 104.583C270.041 104.791 270.37 104.929 270.717 104.986C271.111 105.007 271.504 104.933 271.863 104.77C272.222 104.607 272.537 104.36 272.781 104.049Z" fill="#E6E6E6"/>
<path d="M319.917 189.282L318.633 198.612C318.633 198.612 321.202 201.377 322.487 201.031C323.772 200.685 328.482 198.674 328.482 198.674C328.482 198.674 334.049 201.722 337.047 202.068C340.045 202.413 355.89 200.34 356.318 199.303C356.746 198.267 361.724 194.209 361.724 194.209L359.744 182.371L319.917 189.282Z" fill="#E6E6E6"/>
<path d="M361.641 156.644C361.641 156.644 360.553 165.64 361.41 166.468C362.266 167.292 360.553 172.504 358.84 175.936C357.127 179.368 360.125 179.797 360.125 182.372C360.125 184.946 361.41 194.384 361.41 194.384C361.41 194.384 348.134 195.242 345.993 193.097C343.852 190.952 340.426 192.668 335.715 197.387C331.005 202.106 320.774 198.245 318.633 196.1C316.491 193.955 320.298 186.233 321.583 184.735C322.868 183.238 320.346 184.971 319.061 180.226C317.776 175.482 320.298 175.936 322.44 173.791C324.581 171.646 322.44 167.785 320.727 163.924C319.014 160.063 320.298 131.319 320.298 124.455C320.298 117.591 329.72 116.733 329.72 116.733L333.45 112.035L336.191 108.581L341.561 108.367L341.702 108.363L346.897 108.152L349.419 111.095L354.986 117.591L361.41 118.878C366.549 120.594 365.264 131.319 365.264 131.319L361.641 156.644Z" fill="#3F3D56"/>
<path d="M341.296 106.506C347.375 106.506 352.304 101.568 352.304 95.4779C352.304 89.3874 347.375 84.45 341.296 84.45C335.216 84.45 330.288 89.3874 330.288 95.4779C330.288 101.568 335.216 106.506 341.296 106.506Z" fill="#FFB6B6"/>
<path d="M354.059 91.7682C351.031 89.908 351.419 85.0441 348.502 83.3457C347.052 82.5084 345.422 82.0343 343.75 81.964C342.077 81.8936 340.413 82.229 338.898 82.9416C336.843 82.061 334.382 82.7638 332.738 84.354C331.094 85.9443 330.204 88.2903 329.942 90.6497C329.752 93.0201 329.922 95.4057 330.446 97.7252C330.609 96.7933 330.772 95.8614 330.936 94.9294L339.614 93.0293C338.846 93.7208 338.077 94.4123 337.309 95.1038C341.239 96.0001 345.363 95.3541 348.833 93.2984C352.61 94.995 351.926 98.8054 348.609 103.862C349.894 106.007 357.509 93.8877 354.059 91.7682Z" fill="#2F2E41"/>
<path d="M349.419 111.095C349.394 111.115 349.369 111.134 349.342 111.151C348.435 111.693 347.396 111.975 346.34 111.966C344.957 112.082 343.585 111.651 342.516 110.765C341.955 110.233 339.724 111.357 338.259 111.979C336.723 112.617 335 112.637 333.45 112.035L336.191 108.581L340.708 107.578H341.835L346.897 108.152L349.419 111.095Z" fill="#E6E6E6"/>
<path d="M423.332 313.826L270.101 314C270.013 314 269.926 313.983 269.844 313.95C269.763 313.917 269.688 313.868 269.626 313.805C269.563 313.743 269.513 313.669 269.479 313.588C269.445 313.507 269.427 313.419 269.426 313.331C269.426 313.243 269.443 313.155 269.476 313.073C269.51 312.991 269.559 312.917 269.621 312.854C269.683 312.791 269.756 312.742 269.838 312.707C269.919 312.673 270.006 312.655 270.094 312.655H270.101L423.332 312.481C423.51 312.482 423.68 312.553 423.805 312.679C423.93 312.805 424 312.976 424 313.154C424 313.332 423.93 313.502 423.805 313.628C423.68 313.754 423.51 313.825 423.332 313.826Z" fill="#CACACA"/>
<path d="M239.859 87.9488H238.732V7.14633H283.084V8.2761H239.859V87.9488Z" fill="#3F3D56"/>
<path d="M317.577 0H287.692C285.748 0 283.883 0.773687 282.509 2.15085C281.134 3.52802 280.362 5.39586 280.362 7.34347C280.362 9.29108 281.134 11.1589 282.509 12.5361C283.883 13.9133 285.748 14.6869 287.692 14.6869H317.577C319.521 14.6869 321.385 13.9133 322.76 12.5361C324.135 11.1589 324.907 9.29108 324.907 7.34347C324.907 5.39586 324.135 3.52802 322.76 2.15085C321.385 0.773687 319.521 0 317.577 0Z" fill="#FDC442"/>
<path d="M238.641 95.341C242.361 95.341 245.377 92.3198 245.377 88.593C245.377 84.8661 242.361 81.8449 238.641 81.8449C234.921 81.8449 231.905 84.8661 231.905 88.593C231.905 92.3198 234.921 95.341 238.641 95.341Z" fill="#FDC442"/>
<path d="M157.472 113.949L187.022 107.099L195.504 105.133C196.565 104.887 196.124 103.25 195.063 103.496L165.513 110.347L157.031 112.313C155.97 112.559 156.411 114.195 157.472 113.949Z" fill="#F2F2F2"/>
<path d="M187.986 96.109L203.806 103.399C204.346 103.586 204.851 103.86 205.303 104.211C205.739 104.639 205.421 105.051 205.065 105.425C204 106.421 202.876 107.35 201.698 108.209L194.958 113.698C194.112 114.387 195.306 115.589 196.144 114.907L202.014 110.126L204.949 107.736C205.781 107.058 206.793 106.367 207.127 105.288C207.829 103.022 205.059 102.12 203.519 101.411L196.63 98.2363L188.848 94.65C187.867 94.198 186.998 95.6535 187.986 96.109Z" fill="#F2F2F2"/>
<path d="M406.289 151.605C403.471 149.691 400.047 148.98 396.701 148.738C392.897 148.531 389.085 148.535 385.281 148.752C381.331 148.909 377.388 149.195 373.453 149.611C369.524 150.028 365.612 150.573 361.716 151.248C358.227 151.793 354.775 152.549 351.379 153.515C348.165 154.406 345.137 155.871 342.441 157.839C340.075 159.622 338.255 162.034 337.188 164.801C336.142 167.396 335.964 170.262 336.681 172.967C337.064 174.281 337.718 175.5 338.603 176.543C339.625 177.688 340.836 178.648 342.182 179.382C344.978 180.982 348.145 181.943 350.674 183.991C351.341 184.526 351.949 185.132 352.487 185.796C352.853 186.311 353.358 186.709 353.943 186.944C354.498 187.138 355.097 187.164 355.666 187.017C356.235 186.87 356.748 186.558 357.14 186.12C357.646 185.426 358.068 184.673 358.398 183.879L359.731 181.301C359.821 181.076 359.932 180.86 360.065 180.657C360.165 180.537 359.986 180.659 360.02 180.628C360.039 180.61 360.078 180.611 360.099 180.597C360.209 180.542 360.325 180.498 360.444 180.465C361.677 179.994 362.917 179.537 364.162 179.095C368.757 177.455 373.407 175.942 378.131 174.718C380.562 174.064 383.027 173.548 385.516 173.17C388.739 172.71 392.01 172.763 395.248 172.449C398.734 172.111 402.33 171.404 405.32 169.481C407.791 167.976 409.695 165.693 410.734 162.989C411.184 161.7 411.338 160.326 411.185 158.969C410.797 155.9 408.795 153.307 406.289 151.605Z" fill="#E6E6E6"/>
<path d="M400.521 153.33C397.975 151.6 394.881 150.958 391.856 150.739C388.419 150.552 384.974 150.556 381.537 150.752C377.967 150.893 374.404 151.152 370.848 151.528C367.298 151.904 363.762 152.398 360.241 153.008C357.089 153.499 353.97 154.183 350.901 155.056C347.996 155.861 345.259 157.185 342.823 158.964C340.685 160.575 339.04 162.754 338.077 165.255C337.131 167.6 336.97 170.19 337.619 172.634C337.964 173.822 338.556 174.923 339.355 175.866C340.278 176.9 341.373 177.768 342.59 178.432C345.116 179.877 347.978 180.746 350.263 182.596C350.866 183.08 351.415 183.627 351.902 184.228C352.232 184.693 352.689 185.053 353.218 185.265C353.719 185.44 354.261 185.463 354.775 185.331C355.289 185.198 355.752 184.916 356.106 184.52C356.564 183.893 356.946 183.213 357.243 182.495L358.448 180.165C358.529 179.962 358.63 179.767 358.75 179.583C358.84 179.475 358.679 179.585 358.709 179.557C358.726 179.541 358.761 179.542 358.781 179.529C358.88 179.48 358.985 179.44 359.092 179.41C360.207 178.984 361.327 178.571 362.452 178.172C366.604 176.69 370.807 175.323 375.076 174.216C377.272 173.626 379.5 173.159 381.749 172.818C384.661 172.402 387.618 172.45 390.544 172.166C393.694 171.86 396.944 171.222 399.645 169.484C401.879 168.124 403.599 166.061 404.538 163.617C404.945 162.453 405.084 161.211 404.946 159.985C404.595 157.211 402.786 154.868 400.521 153.33Z" fill="white"/>
<path d="M395.187 156.454L353.686 164.122C353.567 164.144 353.445 164.143 353.327 164.119C353.209 164.094 353.097 164.046 352.997 163.978C352.897 163.91 352.811 163.823 352.745 163.721C352.679 163.62 352.634 163.507 352.612 163.388C352.589 163.269 352.591 163.147 352.616 163.028C352.641 162.91 352.689 162.797 352.757 162.698C352.825 162.598 352.913 162.513 353.014 162.447C353.115 162.381 353.229 162.335 353.348 162.314L353.353 162.313L394.854 154.644C394.973 154.622 395.094 154.624 395.212 154.649C395.33 154.675 395.442 154.723 395.541 154.791C395.641 154.86 395.726 154.947 395.791 155.049C395.857 155.15 395.902 155.263 395.924 155.382C395.946 155.501 395.944 155.623 395.919 155.741C395.894 155.859 395.845 155.971 395.777 156.071C395.709 156.17 395.621 156.255 395.52 156.321C395.419 156.387 395.306 156.432 395.187 156.454Z" fill="#E6E6E6"/>
<path d="M396.21 162.006L354.708 169.674C354.59 169.697 354.468 169.696 354.349 169.671C354.231 169.647 354.119 169.599 354.019 169.531C353.919 169.462 353.834 169.375 353.768 169.274C353.702 169.173 353.656 169.059 353.634 168.94C353.612 168.821 353.613 168.699 353.638 168.581C353.663 168.462 353.711 168.35 353.779 168.25C353.848 168.15 353.935 168.065 354.036 167.999C354.138 167.933 354.251 167.888 354.37 167.866L354.375 167.865L395.876 160.197C395.995 160.175 396.117 160.177 396.235 160.202C396.353 160.227 396.464 160.275 396.564 160.344C396.663 160.412 396.748 160.5 396.813 160.601C396.879 160.703 396.924 160.816 396.946 160.935C396.968 161.053 396.966 161.175 396.941 161.294C396.916 161.412 396.868 161.524 396.799 161.623C396.731 161.723 396.644 161.808 396.542 161.873C396.441 161.939 396.328 161.984 396.21 162.006Z" fill="#E6E6E6"/>
<path d="M360.567 174.333L355.731 175.227C355.491 175.27 355.245 175.217 355.045 175.078C354.845 174.94 354.708 174.728 354.664 174.488C354.62 174.249 354.673 174.002 354.81 173.801C354.947 173.6 355.159 173.463 355.397 173.418L360.234 172.524C360.473 172.48 360.72 172.534 360.92 172.672C361.12 172.81 361.257 173.023 361.301 173.262C361.345 173.502 361.292 173.749 361.155 173.95C361.017 174.15 360.806 174.288 360.567 174.333Z" fill="#E6E6E6"/>
<path d="M357.063 197.417C359.183 197.025 360.584 194.986 360.193 192.863C359.802 190.739 357.767 189.335 355.647 189.727C353.528 190.119 352.126 192.157 352.517 194.281C352.908 196.404 354.944 197.808 357.063 197.417Z" fill="#D1D3D4"/>
<path d="M142.287 112.198H106.839C105.193 112.196 103.615 111.541 102.452 110.375C101.288 109.209 100.634 107.629 100.632 105.98V82.5756C100.634 80.9271 101.288 79.3466 102.452 78.1809C103.615 77.0152 105.193 76.3595 106.839 76.3575H142.287C143.932 76.3595 145.51 77.0152 146.674 78.1809C147.837 79.3466 148.492 80.9271 148.494 82.5756V105.98C148.492 107.629 147.837 109.209 146.674 110.375C145.51 111.541 143.932 112.196 142.287 112.198Z" fill="#E6E6E6"/>
<path d="M147.28 133.284H101.795C101.514 133.284 101.245 133.171 101.046 132.972C100.848 132.773 100.736 132.503 100.736 132.221C100.736 131.94 100.848 131.67 101.046 131.47C101.245 131.271 101.514 131.159 101.795 131.158H147.28C147.561 131.159 147.83 131.271 148.029 131.47C148.227 131.67 148.339 131.94 148.339 132.221C148.339 132.503 148.227 132.773 148.029 132.972C147.83 133.171 147.561 133.284 147.28 133.284Z" fill="#E6E6E6"/>
<path d="M147.28 127.209H101.795C101.514 127.208 101.245 127.096 101.046 126.897C100.848 126.697 100.736 126.427 100.736 126.146C100.736 125.864 100.848 125.594 101.046 125.395C101.245 125.195 101.514 125.083 101.795 125.082H147.28C147.561 125.083 147.83 125.195 148.029 125.395C148.227 125.594 148.339 125.864 148.339 126.146C148.339 126.427 148.227 126.697 148.029 126.897C147.83 127.096 147.561 127.208 147.28 127.209Z" fill="#E6E6E6"/>
<path d="M147.28 139.36H101.795C101.513 139.36 101.244 139.248 101.044 139.049C100.845 138.849 100.734 138.579 100.734 138.297C100.734 138.015 100.845 137.744 101.044 137.545C101.244 137.345 101.513 137.233 101.795 137.233H147.28C147.561 137.233 147.831 137.345 148.03 137.545C148.229 137.744 148.341 138.015 148.341 138.297C148.341 138.579 148.229 138.849 148.03 139.049C147.831 139.248 147.561 139.36 147.28 139.36Z" fill="#E6E6E6"/>
<path d="M147.28 145.435H101.795C101.513 145.435 101.244 145.323 101.044 145.124C100.845 144.925 100.734 144.654 100.734 144.372C100.734 144.09 100.845 143.82 101.044 143.62C101.244 143.421 101.513 143.309 101.795 143.309H147.28C147.561 143.309 147.831 143.421 148.03 143.62C148.229 143.82 148.341 144.09 148.341 144.372C148.341 144.654 148.229 144.925 148.03 145.124C147.831 145.323 147.561 145.435 147.28 145.435Z" fill="#E6E6E6"/>
<path d="M147.28 151.511H101.795C101.513 151.511 101.244 151.399 101.044 151.2C100.845 151 100.734 150.73 100.734 150.448C100.734 150.166 100.845 149.895 101.044 149.696C101.244 149.497 101.513 149.385 101.795 149.385H147.28C147.561 149.385 147.831 149.497 148.03 149.696C148.229 149.895 148.341 150.166 148.341 150.448C148.341 150.73 148.229 151 148.03 151.2C147.831 151.399 147.561 151.511 147.28 151.511Z" fill="#E6E6E6"/>
<path d="M147.28 157.587H101.795C101.514 157.586 101.245 157.474 101.046 157.274C100.848 157.075 100.736 156.805 100.736 156.523C100.736 156.242 100.848 155.972 101.046 155.772C101.245 155.573 101.514 155.461 101.795 155.46H147.28C147.561 155.461 147.83 155.573 148.029 155.772C148.227 155.972 148.339 156.242 148.339 156.523C148.339 156.805 148.227 157.075 148.029 157.274C147.83 157.474 147.561 157.586 147.28 157.587Z" fill="#E6E6E6"/>
<path d="M122.263 143.653H123.391V187.173H41.8237V186.043H122.263V143.653Z" fill="#3F3D56"/>
<path d="M7.33027 194.319H37.2152C39.1593 194.319 41.0238 193.546 42.3985 192.169C43.7732 190.791 44.5455 188.924 44.5455 186.976C44.5455 185.028 43.7732 183.161 42.3985 181.783C41.0238 180.406 39.1593 179.633 37.2152 179.633H7.33027C5.38616 179.633 3.52168 180.406 2.14699 181.783C0.772297 183.161 0 185.028 0 186.976C0 188.924 0.772297 190.791 2.14699 192.169C3.52168 193.546 5.38616 194.319 7.33027 194.319Z" fill="#FDC442"/>
<path d="M123.612 146.932C127.333 146.932 130.348 143.911 130.348 140.184C130.348 136.457 127.333 133.436 123.612 133.436C119.892 133.436 116.876 136.457 116.876 140.184C116.876 143.911 119.892 146.932 123.612 146.932Z" fill="#FDC442"/>
<path d="M158.428 142.059C168.318 144.165 165.802 144.576 175.692 146.682L184.208 148.495C185.273 148.722 185.564 147.052 184.499 146.825C174.609 144.72 177.125 144.309 167.235 142.203L158.72 140.39C157.654 140.163 157.363 141.833 158.428 142.059Z" fill="#F2F2F2"/>
<path d="M181.206 137.132L192.462 150.442C192.872 150.841 193.214 151.303 193.475 151.813C193.69 152.386 193.228 152.624 192.747 152.812C191.362 153.263 189.951 153.629 188.521 153.907L180.096 156.025C179.038 156.29 179.612 157.886 180.66 157.623L187.998 155.778L191.666 154.856C192.706 154.595 193.915 154.398 194.673 153.562C196.267 151.806 194.137 149.815 193.041 148.519L188.14 142.723L182.603 136.175C181.905 135.35 180.503 136.301 181.206 137.132Z" fill="#F2F2F2"/>
<path d="M216.893 195.152C225.544 195.152 232.557 188.127 232.557 179.46C232.557 170.793 225.544 163.768 216.893 163.768C208.242 163.768 201.229 170.793 201.229 179.46C201.229 188.127 208.242 195.152 216.893 195.152Z" fill="#E6E6E6"/>
<path d="M213.229 189.389C212.959 189.389 212.692 189.326 212.45 189.205C212.208 189.084 211.998 188.908 211.836 188.691L207.562 182.983C207.425 182.799 207.325 182.591 207.268 182.369C207.211 182.147 207.198 181.916 207.23 181.689C207.263 181.462 207.339 181.243 207.456 181.046C207.572 180.849 207.726 180.676 207.909 180.539C208.092 180.401 208.301 180.301 208.522 180.244C208.744 180.187 208.975 180.174 209.201 180.207C209.428 180.239 209.646 180.316 209.842 180.432C210.039 180.549 210.212 180.703 210.349 180.887L210.35 180.888L213.146 184.622L220.327 173.832C220.453 173.641 220.616 173.477 220.807 173.349C220.997 173.221 221.21 173.132 221.435 173.087C221.659 173.042 221.89 173.041 222.115 173.086C222.34 173.13 222.554 173.219 222.744 173.346C222.935 173.473 223.098 173.637 223.226 173.828C223.353 174.018 223.442 174.232 223.486 174.457C223.531 174.682 223.531 174.914 223.487 175.139C223.442 175.364 223.353 175.578 223.226 175.769L214.679 188.612C214.525 188.844 214.317 189.036 214.073 189.171C213.829 189.306 213.556 189.381 213.278 189.389C213.262 189.389 213.245 189.389 213.229 189.389Z" fill="#E6E6E6"/>
<path d="M363.159 195.626C363.663 195.329 364.096 194.924 364.428 194.442C364.759 193.959 364.981 193.409 365.078 192.831C365.174 192.252 365.143 191.66 364.986 191.095C364.829 190.531 364.551 190.007 364.17 189.562L376.748 167.544L369.368 167.946L358.284 189.282C357.579 189.972 357.152 190.897 357.083 191.882C357.014 192.866 357.308 193.842 357.909 194.624C358.51 195.405 359.376 195.939 360.344 196.124C361.311 196.309 362.313 196.132 363.159 195.626Z" fill="#FFB8B8"/>
<path d="M348.992 118.449C348.992 118.449 362.313 114.159 365.739 124.455C369.165 134.751 380.682 162.637 380.682 162.637L368.309 187.949L362.741 181.943L368.691 164.353L351.562 138.612L348.992 118.449Z" fill="#3F3D56"/>
<path d="M368.733 185.364C368.332 184.684 367.823 184.074 367.227 183.558L362.977 179.46L362.74 179.988C362.305 180.676 362.019 181.447 361.902 182.253C361.785 183.059 361.839 183.88 362.061 184.664C362.283 185.447 362.667 186.174 363.189 186.798C363.711 187.422 364.359 187.929 365.09 188.284C365.715 188.613 366.419 188.758 367.121 188.705C367.472 188.674 367.809 188.561 368.107 188.375C368.405 188.188 368.655 187.934 368.836 187.632C369.002 187.273 369.079 186.88 369.061 186.485C369.043 186.09 368.93 185.706 368.733 185.364Z" fill="#E6E6E6"/>
<path d="M216.757 200.572H215.629V244.092H253.779V242.962H216.757V200.572Z" fill="#3F3D56"/>
<path d="M295.603 243.895C295.601 241.948 294.828 240.081 293.454 238.704C292.079 237.327 290.216 236.553 288.272 236.551H258.387C256.443 236.551 254.579 237.325 253.204 238.702C251.829 240.079 251.057 241.947 251.057 243.895C251.057 245.842 251.829 247.71 253.204 249.087C254.579 250.464 256.443 251.238 258.387 251.238H288.272C290.216 251.236 292.079 250.462 293.454 249.085C294.828 247.708 295.601 245.842 295.603 243.895Z" fill="#FDC442"/>
<path d="M215.408 203.851C219.128 203.851 222.144 200.83 222.144 197.103C222.144 193.376 219.128 190.355 215.408 190.355C211.688 190.355 208.672 193.376 208.672 197.103C208.672 200.83 211.688 203.851 215.408 203.851Z" fill="#FDC442"/>
<path d="M256.494 53.6638C245.631 53.6638 236.824 62.4863 236.824 73.3695C236.824 84.2527 245.631 93.0753 256.494 93.0753C267.358 93.0753 276.165 84.2527 276.165 73.3695C276.165 62.4863 267.358 53.6638 256.494 53.6638Z" fill="white"/>
<path d="M256.494 53.7295C245.667 53.7295 236.89 62.5226 236.89 73.3695C236.89 84.2164 245.667 93.0096 256.494 93.0096C267.322 93.0096 276.099 84.2164 276.099 73.3695C276.099 62.5226 267.322 53.7295 256.494 53.7295Z" stroke="black" stroke-width="0.232565"/>
<path d="M256.494 54.3206C245.993 54.3206 237.48 62.8491 237.48 73.3695C237.48 83.8899 245.993 92.4183 256.494 92.4183C266.996 92.4183 275.509 83.8899 275.509 73.3695C275.509 62.8491 266.996 54.3206 256.494 54.3206ZM256.494 54.9774C260.453 54.9774 264.12 56.2317 267.118 58.3664L241.518 84.0126C239.387 81.0088 238.135 77.3352 238.135 73.3695C238.135 63.2118 246.355 54.9774 256.494 54.9774ZM267.581 58.7113C267.802 58.879 268.018 59.0512 268.231 59.2285L242.379 85.1272C242.202 84.9142 242.03 84.6975 241.863 84.4765L267.581 58.7113ZM268.667 59.6021C268.874 59.7851 269.074 59.9726 269.272 60.1646L243.313 86.17C243.122 85.972 242.934 85.7709 242.752 85.5644L268.667 59.6021ZM269.676 60.5689C269.867 60.7669 270.054 60.968 270.237 61.1745L244.321 87.1368C244.115 86.9538 243.915 86.7663 243.717 86.5744L269.676 60.5689ZM270.61 61.6117C270.787 61.8248 270.959 62.0414 271.126 62.2624L245.407 88.0277C245.187 87.8599 244.97 87.6877 244.758 87.5104L270.61 61.6117ZM271.47 62.7263C273.601 65.7302 274.853 69.4037 274.853 73.3695C274.853 83.5271 266.634 91.7615 256.494 91.7615C252.536 91.7615 248.869 90.5073 245.87 88.3725L271.47 62.7263Z" fill="black"/>
<path d="M313.445 53.6637C302.581 53.6637 293.775 62.4863 293.775 73.3695C293.775 84.2526 302.581 93.0752 313.445 93.0752C324.309 93.0752 333.115 84.2526 333.115 73.3695C333.115 62.4863 324.309 53.6637 313.445 53.6637Z" fill="white"/>
<path d="M313.445 53.7294C302.617 53.7294 293.84 62.5226 293.84 73.3694C293.84 84.2163 302.617 93.0095 313.445 93.0095C324.272 93.0095 333.05 84.2163 333.05 73.3694C333.05 62.5226 324.272 53.7294 313.445 53.7294Z" stroke="black" stroke-width="0.232565"/>
<path d="M313.445 54.3205C302.943 54.3205 294.43 62.849 294.43 73.3694C294.43 83.8898 302.943 92.4183 313.445 92.4183C323.946 92.4183 332.459 83.8898 332.459 73.3694C332.459 62.849 323.946 54.3205 313.445 54.3205ZM313.445 57.5412C322.171 57.5412 329.245 64.6278 329.245 73.3694C329.245 82.1111 322.171 89.1976 313.445 89.1976C304.719 89.1976 297.645 82.1111 297.645 73.3694C297.645 64.6278 304.719 57.5412 313.445 57.5412Z" fill="#FF0000"/>
<path d="M306.465 80.9974V84.8114H308.305V83.2223H312.217C312.359 83.7702 312.854 84.1758 313.445 84.1758C314.036 84.1758 314.531 83.7702 314.672 83.2223H318.585V84.8114H320.425V80.9974H318.585V82.5866H314.672C314.531 82.0387 314.036 81.6331 313.445 81.6331C312.854 81.6331 312.359 82.0387 312.217 82.5866H308.305V80.9974H306.465Z" fill="black"/>
<path d="M320.488 79.7261H306.529V80.3618H320.488V79.7261Z" fill="black"/>
<path d="M307.607 62.6902C306.974 62.6902 306.465 63.2005 306.465 63.8344V75.2764V77.9462V79.0904H307.607H319.283H320.425V77.9462V75.2764V63.8344C320.425 63.2005 319.915 62.6902 319.283 62.6902H307.607Z" fill="#FF8000"/>
<path d="M85.6427 111.847C74.7791 111.847 65.9724 120.669 65.9724 131.552C65.9724 142.436 74.7791 151.258 85.6427 151.258C96.5063 151.258 105.313 142.436 105.313 131.552C105.313 120.669 96.5063 111.847 85.6427 111.847Z" fill="white"/>
<path d="M81.8177 128.374C81.3974 128.374 81.0205 128.635 80.8699 129.028L79.1705 133.459C78.5378 133.459 78.0284 133.97 78.0284 134.604V137.401C78.0284 138.034 78.5378 138.545 79.1705 138.545H92.1149C92.7476 138.545 93.257 138.034 93.257 137.401V134.604C93.257 133.97 92.7476 133.459 92.1149 133.459L90.4155 129.028C90.2649 128.635 89.888 128.374 89.4677 128.374H81.8177ZM82.02 129.645H89.2655C89.5281 129.645 89.7642 129.807 89.8583 130.053L91.1631 133.459H80.1223L81.4271 130.053C81.5212 129.807 81.7572 129.645 82.02 129.645ZM80.503 134.159C81.239 134.159 81.8355 134.756 81.8355 135.494C81.8355 136.231 81.239 136.828 80.503 136.828C79.7671 136.828 79.1705 136.231 79.1705 135.494C79.1705 134.756 79.7671 134.159 80.503 134.159ZM90.7824 134.159C91.5183 134.159 92.1149 134.756 92.1149 135.494C92.1149 136.231 91.5183 136.828 90.7824 136.828C90.0464 136.828 89.4499 136.231 89.4499 135.494C89.4499 134.756 90.0464 134.159 90.7824 134.159Z" fill="black"/>
<path d="M79.2974 139.435V141.087C79.2974 141.79 79.8656 142.359 80.5665 142.359C81.2674 142.359 81.8355 141.79 81.8355 141.087V139.435H79.2974Z" fill="black"/>
<path d="M79.2974 119.475L81.8355 124.748L77.3939 123.607L81.8169 128.374H89.4499L94.5261 122.017L89.4499 124.56L91.988 117.568L87.7366 120.746L84.3737 116.932L83.0831 120.935L79.2974 119.475Z" fill="#FF8000"/>
<path d="M84.3736 121.636V123.924L83.1046 123.416L84.3736 127.103L85.1351 126.467L85.6427 127.103L86.1503 126.467L86.9117 127.103L88.1808 122.971L86.9117 124.115L87.0386 121.509L85.3889 123.479L84.3736 121.636Z" fill="#FF0000"/>
<path d="M89.4499 139.435V141.087C89.4499 141.79 90.018 142.359 90.7189 142.359C91.4198 142.359 91.988 141.79 91.988 141.087V139.435H89.4499Z" fill="black"/>
<path d="M85.6427 111.912C74.8153 111.912 66.038 120.705 66.038 131.552C66.038 142.399 74.8153 151.192 85.6427 151.192C96.4701 151.192 105.247 142.399 105.247 131.552C105.247 120.705 96.4701 111.912 85.6427 111.912Z" stroke="black" stroke-width="0.232565"/>
<path d="M85.6427 112.504C75.1412 112.504 66.6281 121.032 66.6281 131.552C66.6281 142.073 75.1412 150.601 85.6427 150.601C96.1442 150.601 104.657 142.073 104.657 131.552C104.657 121.032 96.1442 112.504 85.6427 112.504ZM85.6427 115.724C94.3686 115.724 101.442 122.811 101.442 131.552C101.442 140.294 94.3686 147.381 85.6427 147.381C76.9168 147.381 69.8429 140.294 69.8429 131.552C69.8429 122.811 76.9168 115.724 85.6427 115.724Z" fill="#FF0000"/>
<path d="M85.6427 53.6638C74.7791 53.6638 65.9724 62.4864 65.9724 73.3695C65.9724 84.2527 74.7791 93.0753 85.6427 93.0753C96.5063 93.0753 105.313 84.2527 105.313 73.3695C105.313 62.4864 96.5063 53.6638 85.6427 53.6638Z" fill="white"/>
<path d="M85.6427 53.7201C74.8101 53.7201 66.0286 62.5175 66.0286 73.3695C66.0286 84.2216 74.8101 93.019 85.6427 93.019C96.4753 93.019 105.257 84.2216 105.257 73.3695C105.257 62.5175 96.4753 53.7201 85.6427 53.7201Z" stroke="black" stroke-width="0.199341"/>
<path d="M85.6427 92.5122C96.196 92.5122 104.751 83.9417 104.751 73.3695C104.751 62.7973 96.196 54.2268 85.6427 54.2268C75.0895 54.2268 66.5344 62.7973 66.5344 73.3695C66.5344 83.9417 75.0895 92.5122 85.6427 92.5122ZM95.8398 85.3765C92.9939 87.8022 89.3793 89.1341 85.6427 89.1341C76.9518 89.1341 69.9065 82.0761 69.9065 73.3695C69.9065 69.6262 71.2361 66.0051 73.6573 63.1541L95.8398 85.3765ZM75.4456 61.3625C78.2915 58.9369 81.9062 57.6049 85.6427 57.6049C94.3336 57.6049 101.379 64.663 101.379 73.3695C101.379 77.1128 100.049 80.7339 97.6281 83.585L75.4456 61.3625Z" fill="#FF0000"/>
<path d="M73.6994 63.9924C71.606 66.6682 70.4685 69.9698 70.4685 73.3695C70.4685 81.7651 77.2622 88.5711 85.6427 88.5711C89.0363 88.5711 92.3319 87.4315 95.003 85.3344L73.6994 63.9924Z" fill="#0D69E1"/>
<path d="M97.5861 82.7466C99.6794 80.0708 100.817 76.7692 100.817 73.3695C100.817 64.9739 94.0232 58.1679 85.6427 58.1679C82.2492 58.1679 78.9535 59.3075 76.2825 61.4046L97.5861 82.7466Z" fill="#0D69E1"/>
<path d="M142.593 53.6638C131.73 53.6638 122.923 62.4863 122.923 73.3695C122.923 84.2527 131.73 93.0752 142.593 93.0752C153.457 93.0752 162.264 84.2527 162.264 73.3695C162.264 62.4863 153.457 53.6638 142.593 53.6638Z" fill="white"/>
<path d="M142.593 53.7201C131.761 53.7201 122.979 62.5174 122.979 73.3695C122.979 84.2216 131.761 93.0189 142.593 93.0189C153.426 93.0189 162.207 84.2216 162.207 73.3695C162.207 62.5174 153.426 53.7201 142.593 53.7201Z" stroke="black" stroke-width="0.199341"/>
<path d="M142.593 92.5122C153.147 92.5122 161.702 83.9418 161.702 73.3695C161.702 62.7973 153.147 54.2268 142.593 54.2268C132.04 54.2268 123.485 62.7973 123.485 73.3695C123.485 83.9418 132.04 92.5122 142.593 92.5122ZM152.79 85.3765C149.944 87.8022 146.33 89.1341 142.593 89.1341C133.902 89.1341 126.857 82.0761 126.857 73.3695C126.857 69.6262 128.187 66.0051 130.608 63.1541L152.79 85.3765ZM132.396 61.3625C135.242 58.9369 138.857 57.6049 142.593 57.6049C151.284 57.6049 158.33 64.663 158.33 73.3695C158.33 77.1128 157 80.734 154.579 83.585L132.396 61.3625Z" fill="#FF0000"/>
<path d="M130.65 63.9924C128.557 66.6682 127.419 69.9698 127.419 73.3695C127.419 81.7651 134.213 88.5711 142.593 88.5711C145.987 88.5711 149.282 87.4314 151.954 85.3344L144.497 77.8643V85.4472H140.69V74.0502L130.65 63.9924Z" fill="#0D69E1"/>
<path d="M154.537 82.7466C156.63 80.0708 157.768 76.7692 157.768 73.3695C157.768 64.9739 150.974 58.1679 142.593 58.1679C139.2 58.1679 135.904 59.3075 133.233 61.4046L140.69 68.8747V61.2918H144.497V72.6887L154.537 82.7466Z" fill="#0D69E1"/>
<path d="M199.544 53.6637C188.68 53.6637 179.874 62.4863 179.874 73.3694C179.874 84.2526 188.68 93.0752 199.544 93.0752C210.407 93.0752 219.214 84.2526 219.214 73.3694C219.214 62.4863 210.407 53.6637 199.544 53.6637Z" fill="white"/>
<path d="M199.544 53.72C188.711 53.72 179.93 62.5173 179.93 73.3694C179.93 84.2215 188.711 93.0188 199.544 93.0188C210.376 93.0188 219.158 84.2215 219.158 73.3694C219.158 62.5173 210.376 53.72 199.544 53.72Z" stroke="black" stroke-width="0.199341"/>
<path d="M199.544 92.5121C210.097 92.5121 218.652 83.9417 218.652 73.3694C218.652 62.7972 210.097 54.2267 199.544 54.2267C188.991 54.2267 180.436 62.7972 180.436 73.3694C180.436 83.9417 188.991 92.5121 199.544 92.5121ZM209.741 85.3764C206.895 87.8021 203.28 89.134 199.544 89.134C190.853 89.134 183.808 82.076 183.808 73.3694C183.808 69.6261 185.137 66.005 187.558 63.154L209.741 85.3764ZM189.347 61.3624C192.193 58.9368 195.807 57.6048 199.544 57.6048C208.235 57.6048 215.28 64.6629 215.28 73.3694C215.28 77.1127 213.951 80.7338 211.529 83.5849L189.347 61.3624Z" fill="#FF0000"/>
<path d="M187.601 63.9923C185.507 66.6682 184.37 69.9698 184.37 73.3695C184.37 81.765 191.163 88.571 199.544 88.571C202.937 88.571 206.233 87.4314 208.904 85.3343L204.62 81.0426V85.4471H200.813V77.2286L198.275 74.6859V85.4471H194.468V70.8719L187.601 63.9923Z" fill="#0D69E1"/>
<path d="M211.487 82.7466C213.581 80.0707 214.718 76.7691 214.718 73.3695C214.718 64.9739 207.924 58.1679 199.544 58.1679C196.15 58.1679 192.855 59.3075 190.184 61.4046L194.468 65.6963V61.2918H198.275V69.5103L200.813 72.053V61.2918H204.62V75.867L211.487 82.7466Z" fill="#0D69E1"/>
<path d="M142.583 151.258C153.441 151.258 162.243 142.436 162.243 131.552C162.243 120.669 153.441 111.847 142.583 111.847C131.725 111.847 122.923 120.669 122.923 131.552C122.923 142.436 131.725 151.258 142.583 151.258Z" fill="white"/>
<path d="M131.566 127.045C131.294 127.045 131.003 127.253 130.915 127.511L130.586 128.466L129.904 130.445C129.904 130.447 129.904 130.449 129.903 130.451L129.744 130.911C129.356 130.911 129.043 131.225 129.043 131.614V134.426C129.043 134.815 129.356 135.129 129.744 135.129H140.265C140.653 135.129 140.966 134.815 140.966 134.426V131.614C140.966 131.225 140.653 130.911 140.265 130.911L140.106 130.451C140.105 130.449 140.105 130.447 140.105 130.445L139.423 128.466L139.094 127.511C139.006 127.253 138.715 127.045 138.443 127.045H135.004H131.566ZM131.779 127.748H135.004H138.23C138.366 127.748 138.511 127.852 138.555 127.981L139.563 130.911H135.004H130.446L131.454 127.981C131.498 127.852 131.643 127.748 131.779 127.748Z" fill="#7F7F7F"/>
<path d="M129.744 135.48V136.886C129.744 137.469 130.215 137.941 130.796 137.941C131.377 137.941 131.848 137.469 131.848 136.886V135.48H129.744Z" fill="#7F7F7F"/>
<path d="M138.16 135.48V136.886C138.16 137.469 138.631 137.941 139.212 137.941C139.793 137.941 140.264 137.469 140.264 136.886V135.48H138.16Z" fill="#7F7F7F"/>
<path d="M146.723 127.045C146.451 127.045 146.161 127.253 146.072 127.511L145.743 128.466L145.062 130.445C145.061 130.447 145.061 130.449 145.061 130.451L144.902 130.911C144.513 130.911 144.2 131.225 144.2 131.614V134.426C144.2 134.815 144.513 135.129 144.902 135.129H155.422C155.811 135.129 156.123 134.815 156.123 134.426V131.614C156.123 131.225 155.811 130.911 155.422 130.911L155.263 130.451C155.262 130.449 155.263 130.447 155.262 130.445L154.58 128.466L154.252 127.511C154.163 127.253 153.873 127.045 153.601 127.045H150.162H146.723ZM146.937 127.748H150.162H153.387C153.523 127.748 153.668 127.852 153.712 127.981L154.721 130.911H150.162H145.603L146.611 127.981C146.656 127.852 146.801 127.748 146.937 127.748Z" fill="#7F7F7F"/>
<path d="M144.902 135.48V136.886C144.902 137.469 145.373 137.941 145.954 137.941C146.535 137.941 147.006 137.469 147.006 136.886V135.48H144.902Z" fill="#7F7F7F"/>
<path d="M153.318 135.48V136.886C153.318 137.469 153.789 137.941 154.37 137.941C154.951 137.941 155.422 137.469 155.422 136.886V135.48H153.318Z" fill="#7F7F7F"/>
<path d="M142.583 151.192C153.405 151.192 162.178 142.399 162.178 131.552C162.178 120.705 153.405 111.912 142.583 111.912C131.761 111.912 122.988 120.705 122.988 131.552C122.988 142.399 131.761 151.192 142.583 151.192Z" stroke="black" stroke-width="0.232505"/>
<path d="M142.583 112.504C132.087 112.504 123.578 121.032 123.578 131.552C123.578 142.073 132.087 150.601 142.583 150.601C153.079 150.601 161.588 142.073 161.588 131.552C161.588 121.032 153.079 112.504 142.583 112.504ZM142.583 113.16C146.54 113.16 150.205 114.415 153.202 116.549L127.615 142.196C125.485 139.192 124.234 135.518 124.234 131.552C124.234 121.395 132.449 113.16 142.583 113.16ZM153.665 116.894C153.885 117.062 154.101 117.234 154.314 117.411L128.475 143.31C128.298 143.097 128.126 142.88 127.959 142.659L153.665 116.894ZM154.75 117.785C154.956 117.968 155.157 118.156 155.354 118.347L129.409 144.353C129.217 144.155 129.03 143.954 128.848 143.747L154.75 117.785ZM155.758 118.752C155.949 118.95 156.136 119.151 156.319 119.357L130.416 145.32C130.21 145.137 130.01 144.949 129.812 144.757L155.758 118.752ZM156.691 119.795C156.868 120.008 157.04 120.224 157.207 120.445L131.502 146.211C131.281 146.043 131.065 145.871 130.853 145.693L156.691 119.795ZM157.552 120.909C159.681 123.913 160.933 127.587 160.933 131.552C160.933 141.71 152.717 149.944 142.583 149.944C138.627 149.944 134.962 148.69 131.965 146.555L157.552 120.909Z" fill="black"/>
<path d="M105.346 188.625C105.346 193.853 103.272 198.872 99.5814 202.569C95.8819 206.263 90.8809 208.342 85.6656 208.342C80.4348 208.342 75.437 206.263 71.7344 202.569C68.0473 198.872 65.9724 193.853 65.9724 188.625C65.9724 177.734 74.794 168.9 85.6656 168.9C96.5373 168.9 105.346 177.734 105.346 188.625Z" fill="white"/>
<path d="M105.272 188.626C105.272 193.842 103.209 198.836 99.5317 202.52C95.857 206.204 90.8561 208.282 85.6656 208.282C80.4597 208.282 75.4587 206.204 71.7841 202.52C68.1064 198.836 66.0439 193.842 66.0439 188.626C66.0439 177.772 74.8282 168.971 85.6656 168.971C96.5 168.971 105.272 177.772 105.272 188.626Z" stroke="black" stroke-width="0.23273"/>
<path d="M85.6657 169.553C75.145 169.553 66.6278 178.101 66.6278 188.625C66.6278 199.152 75.145 207.685 85.6657 207.685C96.1708 207.685 104.691 199.152 104.691 188.625C104.691 178.101 96.1708 169.553 85.6657 169.553ZM85.6657 172.789C94.3878 172.789 101.473 179.875 101.473 188.625C101.473 197.366 94.3878 204.464 85.6657 204.464C76.928 204.464 69.8427 197.366 69.8427 188.625C69.8427 179.875 76.928 172.789 85.6657 172.789Z" fill="#FF0000"/>
<path d="M79.9503 184.166V190.791H72.3308V191.799H83.4571C83.6125 190.377 84.827 189.257 86.2962 189.257C87.7623 189.257 88.9768 190.377 89.1353 191.799H95.1892V184.166H79.9503Z" fill="black"/>
<path d="M86.2962 189.892C85.0693 189.892 84.0753 190.888 84.0753 192.126C84.0753 193.355 85.0693 194.351 86.2962 194.351C87.52 194.351 88.5171 193.355 88.5171 192.126C88.5171 190.888 87.52 189.892 86.2962 189.892ZM86.2962 190.972C86.9268 190.972 87.4362 191.494 87.4362 192.126C87.4362 192.758 86.9268 193.271 86.2962 193.271C85.6657 193.271 85.1562 192.758 85.1562 192.126C85.1562 191.494 85.6657 190.972 86.2962 190.972Z" fill="black"/>
<path d="M162.297 188.628C162.297 193.856 160.222 198.876 156.532 202.572C152.832 206.266 147.835 208.345 142.616 208.345C137.385 208.345 132.388 206.266 128.688 202.572C124.998 198.876 122.923 193.856 122.923 188.628C122.923 177.737 131.745 168.9 142.616 168.9C153.488 168.9 162.297 177.737 162.297 188.628Z" fill="white"/>
<path d="M162.222 188.63C162.222 193.843 160.16 198.84 156.485 202.524C152.808 206.206 147.81 208.283 142.616 208.283C137.41 208.283 132.412 206.206 128.735 202.524C125.06 198.84 122.998 193.843 122.998 188.63C122.998 177.774 131.782 168.974 142.616 168.974C153.451 168.974 162.222 177.774 162.222 188.63Z" stroke="black" stroke-width="0.23273"/>
<path d="M142.616 169.569C132.096 169.569 123.578 178.101 123.578 188.628C123.578 199.156 132.096 207.688 142.616 207.688C153.124 207.688 161.642 199.156 161.642 188.628C161.642 178.101 153.124 169.569 142.616 169.569ZM142.616 172.789C151.341 172.789 158.427 179.878 158.427 188.628C158.427 197.369 151.341 204.467 142.616 204.467C133.879 204.467 126.793 197.369 126.793 188.628C126.793 179.878 133.879 172.789 142.616 172.789Z" fill="#FF0000"/>
<path d="M153.948 190.405C152.686 190.405 151.655 191.438 151.655 192.702C151.655 193.965 152.686 194.986 153.948 194.986C155.212 194.986 156.231 193.965 156.231 192.702C156.231 191.438 155.212 190.405 153.948 190.405ZM153.948 191.547C154.578 191.547 155.091 192.07 155.091 192.702C155.091 193.333 154.578 193.844 153.948 193.844C153.317 193.844 152.795 193.333 152.795 192.702C152.795 192.07 153.317 191.547 153.948 191.547Z" fill="black"/>
<path d="M153.404 186.721V189.882C153.584 189.858 153.755 189.833 153.948 189.833C155.442 189.833 156.665 190.987 156.787 192.447H157.308C157.613 191.217 157.784 189.942 157.784 188.628C157.784 187.984 157.746 187.34 157.675 186.721H153.404Z" fill="black"/>
<path d="M144.933 190.502L143.296 194.049L143.272 194.086C143.234 194.161 143.209 194.258 143.209 194.354C143.209 194.706 143.501 194.986 143.852 194.986C144.107 194.986 144.328 194.84 144.424 194.622L144.436 194.597L146.244 190.695L144.933 190.502Z" fill="black"/>
<path d="M136.901 189.297V194.354C136.901 194.706 137.18 194.986 137.531 194.986C137.882 194.986 138.162 194.706 138.162 194.354V189.493L136.901 189.297Z" fill="black"/>
<path d="M135.953 181.882L136.488 181.347C136.683 181.154 137.01 181.154 137.205 181.347C137.398 181.555 137.398 181.87 137.205 182.078L136.742 182.539L138.09 183.889C138.271 184.07 138.516 184.169 138.771 184.169H145.977C146.716 184.169 147.313 184.776 147.313 185.504V188.46C146.779 188.46 146.353 188.034 146.353 187.511V185.579C146.353 185.261 146.098 184.994 145.781 184.994V187.147C145.781 188.193 146.549 189.067 147.567 189.226L152.068 189.892L151.255 190.804L148.332 190.368V194.354C148.332 194.706 148.04 194.986 147.689 194.986C147.335 194.986 147.058 194.706 147.058 194.354V191C147.058 190.527 146.704 190.125 146.244 190.05L136.488 188.594L134.208 191.317L135.118 193.467C135.251 193.794 135.105 194.161 134.776 194.304C134.462 194.438 134.087 194.283 133.953 193.965L132.885 191.46C132.801 191.242 132.835 190.987 132.981 190.804L135.022 188.373L133.503 188.143L133.661 187.147L135.13 187.365L133.49 182.953L132.037 184.095C131.816 184.266 131.49 184.228 131.319 184.011C131.21 183.864 131.185 183.668 131.248 183.5L132.229 181.079L132.459 180.497L132.012 180.413C131.853 180.388 131.757 180.242 131.782 180.083C131.804 179.925 131.962 179.828 132.108 179.853L134.111 180.205C134.245 180.23 134.366 180.292 134.45 180.388L135.953 181.882Z" fill="black"/>
<path d="M219.248 188.616C219.248 199.507 210.426 208.332 199.567 208.332C188.695 208.332 179.874 199.507 179.874 188.616C179.874 177.725 188.695 168.9 199.567 168.9C210.426 168.9 219.248 177.725 219.248 188.616Z" fill="white"/>
<path d="M219.188 188.616C219.188 199.47 210.404 208.282 199.567 208.282C188.72 208.282 179.936 199.47 179.936 188.616C179.936 177.759 188.72 168.946 199.567 168.946C210.404 168.946 219.188 177.759 219.188 188.616Z" stroke="black" stroke-width="0.199482"/>
<path d="M199.567 207.772C210.125 207.772 218.679 199.19 218.679 188.616C218.679 178.039 210.125 169.457 199.567 169.457C188.999 169.457 180.445 178.039 180.445 188.616C180.445 199.19 188.999 207.772 199.567 207.772ZM199.567 204.393C190.866 204.393 183.818 197.329 183.818 188.616C183.818 179.9 190.866 172.836 199.567 172.836C208.255 172.836 215.306 179.9 215.306 188.616C215.306 197.329 208.255 204.393 199.567 204.393Z" fill="#FF0000"/>
<path d="M200.648 191.666C200.732 191.737 200.84 191.774 200.952 191.774H203.378C203.692 193.974 205.562 195.617 207.783 195.617C210.246 195.617 212.234 193.623 212.234 191.155C212.234 188.7 210.246 186.705 207.783 186.705C207.09 186.705 206.41 186.864 205.791 187.181L204.155 184.835L204.58 183.814H204.844C205.211 183.814 205.5 183.51 205.5 183.145C205.5 182.781 205.211 182.476 204.844 182.476H201.788C201.412 182.476 201.12 182.781 201.12 183.145C201.12 183.51 201.412 183.814 201.788 183.814H203.729L203.474 184.421H195.818C195.842 184.3 195.867 184.166 195.867 184.032C195.867 183.485 195.575 182.987 195.103 182.719L194.811 182.56C194.606 182.439 194.485 182.221 194.485 181.979C194.485 181.602 194.774 181.31 195.137 181.31H197.336C197.591 181.31 197.784 181.104 197.784 180.858C197.784 180.616 197.591 180.423 197.336 180.423H195.137C194.289 180.423 193.584 181.113 193.584 181.979C193.584 182.536 193.889 183.049 194.373 183.326L194.665 183.497C194.861 183.606 194.982 183.814 194.982 184.032C194.982 184.116 194.957 184.203 194.92 184.287L193.525 187.278C192.857 186.901 192.106 186.705 191.342 186.705C188.878 186.705 186.887 188.7 186.887 191.155C186.887 193.623 188.878 195.617 191.342 195.617C193.792 195.617 195.783 193.623 195.783 191.155C195.783 189.879 195.224 188.65 194.264 187.801L194.606 187.06L200.648 191.666ZM191.342 194.948C189.254 194.948 187.555 193.246 187.555 191.155C187.555 189.064 189.254 187.374 191.342 187.374C192.009 187.374 192.665 187.558 193.246 187.885L192.276 189.963C192.214 190.085 192.13 190.194 192.009 190.256L191.112 190.779C190.978 190.85 190.891 190.996 190.891 191.155C190.891 191.41 191.099 191.606 191.342 191.606C191.413 191.606 191.5 191.581 191.559 191.544L192.444 191.034C192.724 190.875 192.941 190.632 193.087 190.34L193.963 188.445C194.702 189.148 195.116 190.135 195.116 191.155C195.116 193.246 193.429 194.948 191.342 194.948ZM207.783 194.948C205.937 194.948 204.36 193.598 204.058 191.774H207.891C208.23 191.774 208.509 191.494 208.509 191.155C208.509 191.034 208.463 190.912 208.401 190.804L206.229 187.717C206.714 187.483 207.248 187.374 207.783 187.374C209.87 187.374 211.569 189.064 211.569 191.155C211.569 193.246 209.87 194.948 207.783 194.948ZM204.021 190.766C204.13 189.783 204.614 188.871 205.378 188.236L207.152 190.766H204.021ZM201.871 190.766L203.887 186.015L205.04 187.654C204.068 188.42 203.462 189.537 203.353 190.766H201.871ZM200.865 190.57L195.137 186.207L195.538 185.43H203.049L200.865 190.57Z" fill="black"/>
<path d="M219.248 131.01C219.248 136.238 217.173 141.258 213.482 144.951C209.783 148.648 204.785 150.727 199.567 150.727C194.336 150.727 189.338 148.648 185.639 144.951C181.948 141.258 179.874 136.238 179.874 131.01C179.874 120.119 188.695 111.282 199.567 111.282C210.438 111.282 219.248 120.119 219.248 131.01Z" fill="white"/>
<path d="M219.173 131.011C219.173 136.224 217.111 141.22 213.436 144.904C209.758 148.586 204.76 150.666 199.567 150.666C194.361 150.666 189.363 148.586 185.685 144.904C182.011 141.22 179.948 136.224 179.948 131.011C179.948 120.157 188.732 111.355 199.567 111.355C210.401 111.355 219.173 120.157 219.173 131.011Z" stroke="black" stroke-width="0.23273"/>
<path d="M199.567 111.951C189.046 111.951 180.529 120.483 180.529 131.01C180.529 141.538 189.046 150.07 199.567 150.07C210.075 150.07 218.592 141.538 218.592 131.01C218.592 120.483 210.075 111.951 199.567 111.951ZM199.567 115.171C208.292 115.171 215.377 122.257 215.377 131.01C215.377 139.751 208.292 146.849 199.567 146.849C190.829 146.849 183.744 139.751 183.744 131.01C183.744 122.257 190.829 115.171 199.567 115.171Z" fill="#FF0000"/>
<path d="M199.567 132.918C198.728 132.918 197.989 133.319 197.529 133.926C197.296 134.244 196.933 134.44 196.51 134.44H191.304V132.274C191.304 131.583 190.733 131.01 190.043 131.01C189.338 131.01 188.767 131.583 188.767 132.274V138.644C188.767 139.35 189.338 139.907 190.043 139.907C190.733 139.907 191.304 139.35 191.304 138.644V136.481H196.51C196.933 136.481 197.296 136.674 197.529 136.991C197.989 137.611 198.728 138 199.567 138C200.393 138 201.132 137.611 201.592 136.991C201.822 136.674 202.201 136.481 202.611 136.481H207.817V138.644C207.817 139.35 208.388 139.907 209.09 139.907C209.783 139.907 210.355 139.35 210.355 138.644V132.274C210.355 131.583 209.783 131.01 209.09 131.01C208.388 131.01 207.817 131.583 207.817 132.274V134.44H202.611C202.201 134.44 201.822 134.244 201.592 133.926C201.132 133.319 200.393 132.918 199.567 132.918Z" fill="black"/>
<path d="M194.883 125.114C194.991 126.682 195.588 127.472 196.666 127.46C197.588 127.447 198.051 126.794 198.051 125.481C198.051 125.017 197.939 124.653 197.709 124.385C197.492 124.13 197.212 124.009 196.861 124.009C196.243 123.996 195.575 124.373 194.883 125.114ZM196.619 129.09C194.361 129.09 193.221 127.242 193.221 123.523C193.221 122.148 193.559 121.043 194.24 120.191C194.92 119.341 195.793 118.915 196.861 118.915C197.638 118.915 198.34 119.061 198.973 119.329L199.203 120.813C198.414 120.483 197.734 120.303 197.141 120.29C195.734 120.253 194.979 121.323 194.883 123.511C195.563 122.879 196.231 122.562 196.861 122.549C198.741 122.525 199.675 123.511 199.675 125.481C199.675 126.598 199.349 127.497 198.694 128.179C198.11 128.773 197.42 129.078 196.619 129.09Z" fill="black"/>
<path d="M201.909 123.122H205.972V124.264H204.506V129.103H203.412V124.264H201.909V123.122Z" fill="black"/>
<path d="M276.198 131.563C276.198 136.791 274.123 141.81 270.433 145.507C266.734 149.2 261.736 151.279 256.505 151.279C251.286 151.279 246.289 149.2 242.586 145.507C238.899 141.81 236.824 136.791 236.824 131.563C236.824 120.672 245.646 111.847 256.505 111.847C267.377 111.847 276.198 120.672 276.198 131.563Z" fill="white"/>
<path d="M276.124 131.564C276.124 136.778 274.061 141.774 270.386 145.458C266.709 149.14 261.711 151.22 256.505 151.22C251.311 151.22 246.313 149.14 242.636 145.458C238.958 141.774 236.896 136.778 236.896 131.564C236.896 120.71 245.67 111.909 256.505 111.909C267.339 111.909 276.124 120.71 276.124 131.564Z" stroke="black" stroke-width="0.23273"/>
<path d="M256.505 112.503C245.997 112.503 237.479 121.039 237.479 131.563C237.479 142.09 245.997 150.623 256.505 150.623C267.026 150.623 275.543 142.09 275.543 131.563C275.543 121.039 267.026 112.503 256.505 112.503ZM256.505 115.727C265.239 115.727 272.328 122.813 272.328 131.563C272.328 140.316 265.239 147.402 256.505 147.402C247.78 147.402 240.694 140.316 240.694 131.563C240.694 122.813 247.78 115.727 256.505 115.727Z" fill="#FF0000"/>
<path d="M252.694 116.928L256.505 120.746L260.313 116.928H252.694Z" fill="black"/>
<path d="M252.694 146.188L256.505 142.37L260.313 146.188H252.694Z" fill="black"/>
<path d="M256.965 129.935C256.626 129.948 256.359 130.069 256.129 130.287C255.912 130.508 255.8 130.785 255.787 131.115C255.787 131.42 255.887 131.684 256.079 131.893C256.275 132.111 256.505 132.244 256.809 132.282L255.753 133.959H256.638C256.772 133.763 257.014 133.374 257.353 132.804C257.707 132.232 257.924 131.855 258.008 131.65C258.046 131.563 258.07 131.479 258.095 131.395C258.129 131.308 258.142 131.211 258.142 131.115C258.129 130.785 258.021 130.508 257.791 130.287C257.573 130.069 257.294 129.948 256.965 129.935Z" fill="black"/>
<path d="M265.118 123.139L265.653 121.39H259.453V126.652L260.667 127.334C260.801 127.238 261.006 127.091 261.273 126.873C261.54 126.665 261.879 126.544 262.279 126.519C262.901 126.544 263.36 126.761 263.686 127.175C264.003 127.602 264.174 128.053 264.174 128.551C264.137 129.229 263.87 129.73 263.36 130.069C262.863 130.408 262.317 130.58 261.745 130.58C261.285 130.58 260.835 130.542 260.375 130.471C259.916 130.396 259.515 130.253 259.186 130.032L259.453 131.796C259.478 131.818 259.757 131.905 260.279 132.064C260.801 132.219 261.369 132.319 262.012 132.331C263.311 132.307 264.329 131.93 265.072 131.186C265.811 130.446 266.187 129.522 266.199 128.417C266.15 127.334 265.799 126.497 265.131 125.912C264.463 125.339 263.749 125.037 262.96 125.037C262.643 125.025 262.317 125.072 262 125.171C261.686 125.268 261.419 125.451 261.201 125.719V123.139H265.118Z" fill="black"/>
<path d="M253.315 140.534H254.551L254.856 136.498L256.505 139.806L258.167 136.498L258.471 140.534H259.707L259.198 134.749H257.962L256.505 137.643L255.061 134.749H253.824L253.315 140.534Z" fill="black"/>
<path d="M251.895 121.353H253.265V128.513H254.526L254.004 130.166H253.386V132.366H251.783V130.166H247.429V128.513L251.895 121.353ZM251.783 124.247L249.153 128.513H251.783V124.247Z" fill="black"/>
</g>
<defs>
<clipPath id="clip0_41_70">
<rect width="424" height="314" fill="white"/>
</clipPath>
</defs>
</svg>
