<svg width="375" height="794" viewBox="0 0 375 794" fill="none" xmlns="http://www.w3.org/2000/svg">
<rect width="187" height="794" fill="#212B3E"/>
<g clip-path="url(#clip0_190_8)">
<path d="M257.4 786L266.2 742.333C275 698.667 292.6 611.333 289.685 524C286.55 436.667 263.45 349.333 242.715 262C222.2 174.667 204.6 87.3333 195.8 43.6666L187 -1.83856e-05L187 43.6666C187 87.3333 187 174.667 187 262C187 349.333 187 436.667 187 524C187 611.333 187 698.667 187 742.333L187 786L257.4 786Z" fill="#FDC442" fill-opacity="0.53"/>
</g>
<g clip-path="url(#clip1_190_8)">
<path d="M257.4 -1.4253e-06L266.2 43.6667C275 87.3333 292.6 174.667 289.685 262C286.55 349.333 263.45 436.667 242.715 524C222.2 611.333 204.6 698.667 195.8 742.333L187 786L187 742.333C187 698.667 187 611.333 187 524C187 436.667 187 349.333 187 262C187 174.667 187 87.3333 187 43.6667L187 -4.50258e-06L257.4 -1.4253e-06Z" fill="#212B3E"/>
</g>
<defs>
<clipPath id="clip0_190_8">
<rect width="786" height="176" fill="white" transform="matrix(-4.37114e-08 -1 -1 4.37114e-08 363 786)"/>
</clipPath>
<clipPath id="clip1_190_8">
<rect width="786" height="176" fill="white" transform="translate(363) rotate(90)"/>
</clipPath>
</defs>
</svg>
