<svg width="42" height="47" viewBox="0 0 42 47" fill="none" xmlns="http://www.w3.org/2000/svg">
<path d="M28.378 13.9617L27.8266 14.7487H28.7875H34.2308C35.5086 14.7487 36.5 15.7277 36.5 16.8919C36.5 18.0561 35.5086 19.0351 34.2308 19.0351H25.101H24.8403L24.691 19.2488L19.1526 27.1786L18.6034 27.9649H19.5625H34.2308C35.5086 27.9649 36.5 28.9439 36.5 30.1081C36.5 31.2723 35.5086 32.2513 34.2308 32.2513H15.8673H15.6068L15.4575 32.4648L9.81522 40.535L9.81509 40.5352C9.12456 41.5239 7.70357 41.8045 6.65112 41.1348C5.61103 40.473 5.3428 39.1488 6.02226 38.1757C6.02231 38.1756 6.02236 38.1755 6.02242 38.1754L9.62198 33.0383L10.1734 32.2513H9.2125H3.76923C2.49145 32.2513 1.5 31.2723 1.5 30.1081C1.5 28.9439 2.49145 27.9649 3.76923 27.9649H12.899H13.1597L13.309 27.7512L18.8474 19.8214L19.3966 19.0351H18.4375H3.76923C2.49145 19.0351 1.5 18.0561 1.5 16.8919C1.5 15.7277 2.49145 14.7487 3.76923 14.7487H22.1327H22.3932L22.5425 14.5352L28.1848 6.465L28.1849 6.46481C28.8754 5.47614 30.2964 5.19548 31.3489 5.86519C32.3891 6.52709 32.6572 7.85145 31.9776 8.82455L28.378 13.9617Z" stroke="#FF0000"/>
</svg>
