<svg width="41" height="69" viewBox="0 0 41 69" fill="none" xmlns="http://www.w3.org/2000/svg">
<path d="M10.2498 21.5625C10.2498 16.8053 13.927 12.9375 18.4498 12.9375H22.5498C27.0726 12.9375 30.7498 16.8053 30.7498 21.5625V22.0476C30.7498 24.9855 29.3276 27.7213 26.9829 29.298L21.5761 32.9502C18.3473 35.1334 16.3998 38.8933 16.3998 42.9228V43.1115C16.3998 45.4969 18.232 47.424 20.4998 47.424C22.7676 47.424 24.5998 45.4969 24.5998 43.1115V42.9228C24.5998 41.8178 25.1379 40.7935 26.0092 40.2006L31.4161 36.5484C36.1054 33.368 38.9498 27.91 38.9498 22.0342V21.549C38.9498 12.0211 31.6082 4.29901 22.5498 4.29901H18.4498C9.39137 4.31249 2.0498 12.0346 2.0498 21.5625C2.0498 23.9478 3.88199 25.875 6.14981 25.875C8.41762 25.875 10.2498 23.9478 10.2498 21.5625ZM20.4998 64.6875C21.859 64.6875 23.1626 64.1195 24.1237 63.1086C25.0849 62.0977 25.6248 60.7265 25.6248 59.2969C25.6248 57.8672 25.0849 56.4961 24.1237 55.4851C23.1626 54.4742 21.859 53.9062 20.4998 53.9062C19.1406 53.9062 17.837 54.4742 16.8759 55.4851C15.9148 56.4961 15.3748 57.8672 15.3748 59.2969C15.3748 60.7265 15.9148 62.0977 16.8759 63.1086C17.837 64.1195 19.1406 64.6875 20.4998 64.6875Z" fill="#FDC442"/>
</svg>
