<svg width="423" height="281" viewBox="0 0 423 281" fill="none" xmlns="http://www.w3.org/2000/svg">
<g clip-path="url(#clip0_424_51)">
<path d="M215.688 4.59517L205.797 7.14753L83.9299 38.5932L74.0382 41.1456C69.237 42.3902 65.1252 45.4897 62.6049 49.764C60.0847 54.0383 59.3618 59.1384 60.595 63.9453L103.487 230.371C104.731 235.175 107.829 239.289 112.101 241.811C116.372 244.332 121.469 245.056 126.273 243.822L126.299 243.815L267.898 207.278L267.923 207.271C272.725 206.027 276.837 202.927 279.357 198.653C281.877 194.379 282.6 189.279 281.367 184.472L238.474 18.0465C237.231 13.2424 234.133 9.12811 229.861 6.60637C225.589 4.08462 220.492 3.36133 215.688 4.59517Z" fill="#F2F2F2"/>
<path d="M217.033 9.81307L205.317 12.8362L87.0985 43.3405L75.3828 46.3635C71.9636 47.2498 69.0355 49.457 67.2408 52.5009C65.4461 55.5447 64.9313 59.1766 65.8094 62.5997L108.702 229.025C109.588 232.446 111.793 235.376 114.835 237.172C117.877 238.967 121.507 239.483 124.928 238.604L124.954 238.597L266.553 202.06L266.579 202.053C269.998 201.167 272.926 198.96 274.72 195.916C276.515 192.872 277.03 189.24 276.152 185.817L233.259 19.3921C232.374 15.971 230.168 13.0411 227.126 11.2453C224.084 9.44955 220.454 8.93446 217.033 9.81307Z" fill="white"/>
<path d="M208.187 63.7059L136.555 82.1892C135.755 82.3957 134.906 82.2756 134.194 81.8556C133.483 81.4355 132.967 80.7497 132.761 79.9492C132.554 79.1487 132.674 78.299 133.094 77.5869C133.514 76.8749 134.199 76.3589 134.999 76.1525L206.631 57.6692C207.431 57.4636 208.279 57.5841 208.99 58.0042C209.701 58.4244 210.217 59.1098 210.423 59.9099C210.629 60.7099 210.509 61.5592 210.09 62.271C209.671 62.9828 208.986 63.4989 208.187 63.7059Z" fill="#F2F2F2"/>
<path d="M223.255 70.6822L139.18 92.3763C138.38 92.5827 137.531 92.4627 136.819 92.0426C136.108 91.6225 135.592 90.9368 135.386 90.1363C135.179 89.3357 135.299 88.486 135.719 87.774C136.139 87.0619 136.824 86.5459 137.624 86.3395L221.699 64.6454C222.499 64.4389 223.349 64.559 224.06 64.9791C224.772 65.3991 225.288 66.0849 225.494 66.8854C225.7 67.6859 225.58 68.5357 225.16 69.2477C224.741 69.9597 224.055 70.4757 223.255 70.6822Z" fill="#F2F2F2"/>
<path d="M219.952 109.359L148.321 127.842C147.925 127.944 147.512 127.968 147.107 127.91C146.702 127.853 146.312 127.717 145.96 127.509C145.608 127.301 145.3 127.025 145.054 126.698C144.808 126.371 144.629 125.999 144.526 125.602C144.424 125.206 144.401 124.793 144.458 124.388C144.516 123.983 144.652 123.593 144.86 123.24C145.068 122.887 145.343 122.579 145.67 122.333C145.997 122.087 146.369 121.908 146.765 121.805L218.397 103.322C218.793 103.22 219.205 103.197 219.61 103.254C220.015 103.311 220.405 103.448 220.757 103.656C221.11 103.864 221.418 104.139 221.664 104.466C221.91 104.793 222.089 105.166 222.191 105.562C222.293 105.959 222.316 106.371 222.259 106.777C222.202 107.182 222.066 107.572 221.858 107.925C221.65 108.277 221.374 108.585 221.048 108.831C220.721 109.077 220.349 109.257 219.952 109.359Z" fill="#F2F2F2"/>
<path d="M235.022 116.335L150.947 138.029C150.551 138.131 150.138 138.155 149.733 138.097C149.328 138.04 148.938 137.904 148.586 137.696C148.234 137.488 147.926 137.212 147.68 136.885C147.434 136.558 147.255 136.186 147.152 135.789C147.05 135.393 147.027 134.98 147.084 134.575C147.142 134.17 147.278 133.78 147.486 133.427C147.694 133.074 147.969 132.766 148.296 132.52C148.623 132.274 148.995 132.095 149.391 131.993L233.466 110.298C234.266 110.092 235.115 110.212 235.827 110.632C236.539 111.052 237.054 111.738 237.261 112.538C237.467 113.339 237.347 114.189 236.927 114.901C236.507 115.613 235.822 116.129 235.022 116.335Z" fill="#F2F2F2"/>
<path d="M231.719 155.012L160.087 173.495C159.288 173.701 158.439 173.581 157.728 173.161C157.017 172.74 156.501 172.055 156.295 171.255C156.089 170.455 156.209 169.605 156.628 168.893C157.047 168.181 157.732 167.665 158.532 167.459L230.163 148.975C230.963 148.769 231.812 148.889 232.524 149.309C233.236 149.729 233.751 150.415 233.958 151.215C234.164 152.016 234.044 152.865 233.624 153.578C233.204 154.29 232.519 154.806 231.719 155.012Z" fill="#F2F2F2"/>
<path d="M246.787 161.988L162.712 183.682C162.316 183.785 161.903 183.808 161.498 183.751C161.093 183.694 160.703 183.558 160.35 183.35C159.997 183.142 159.689 182.867 159.443 182.539C159.197 182.212 159.017 181.84 158.915 181.443C158.813 181.046 158.79 180.634 158.847 180.228C158.904 179.822 159.041 179.432 159.249 179.079C159.457 178.727 159.733 178.419 160.06 178.173C160.387 177.927 160.76 177.747 161.156 177.646L245.231 155.951C246.031 155.745 246.881 155.865 247.592 156.285C248.304 156.705 248.82 157.391 249.026 158.191C249.232 158.992 249.112 159.842 248.692 160.554C248.273 161.266 247.587 161.782 246.787 161.988Z" fill="#F2F2F2"/>
<path d="M124.326 101.141L98.9764 107.682C98.5928 107.781 98.1858 107.723 97.8447 107.522C97.5036 107.32 97.2563 106.992 97.157 106.608L91.338 84.0299C91.2395 83.6461 91.2972 83.2389 91.4985 82.8976C91.6997 82.5563 92.028 82.3088 92.4114 82.2094L117.761 75.6683C118.145 75.5698 118.552 75.6276 118.893 75.8289C119.234 76.0303 119.481 76.3588 119.581 76.7424L125.4 99.3206C125.498 99.7044 125.44 100.112 125.239 100.453C125.038 100.794 124.71 101.042 124.326 101.141Z" fill="#6B9094"/>
<path d="M136.093 146.794L110.743 153.335C110.359 153.434 109.952 153.376 109.611 153.175C109.27 152.973 109.023 152.645 108.924 152.261L103.105 129.683C103.006 129.299 103.064 128.892 103.265 128.551C103.466 128.209 103.795 127.962 104.178 127.862L129.528 121.321C129.911 121.223 130.318 121.281 130.659 121.482C131.001 121.683 131.248 122.012 131.347 122.396L137.166 144.974C137.265 145.357 137.207 145.765 137.006 146.106C136.804 146.447 136.476 146.695 136.093 146.794Z" fill="#6B9094"/>
<path d="M147.858 192.447L122.509 198.988C122.125 199.087 121.718 199.029 121.377 198.828C121.036 198.626 120.789 198.298 120.689 197.914L114.87 175.336C114.772 174.952 114.829 174.545 115.031 174.204C115.232 173.862 115.56 173.615 115.944 173.515L141.293 166.974C141.677 166.876 142.084 166.934 142.425 167.135C142.766 167.336 143.014 167.665 143.113 168.048L148.932 190.627C149.03 191.01 148.973 191.418 148.771 191.759C148.57 192.1 148.242 192.348 147.858 192.447Z" fill="#6B9094"/>
<path d="M314.482 46.7819H168.198C163.238 46.7874 158.483 48.7614 154.976 52.2706C151.469 55.7798 149.496 60.5376 149.49 65.5004V237.37C149.496 242.333 151.469 247.091 154.976 250.6C158.483 254.109 163.238 256.083 168.198 256.089H314.482C319.442 256.083 324.197 254.109 327.704 250.6C331.211 247.091 333.184 242.333 333.189 237.37V65.5004C333.184 60.5376 331.211 55.7798 327.704 52.2706C324.197 48.7614 319.442 46.7874 314.482 46.7819Z" fill="#6B9094"/>
<path d="M314.482 52.1705H168.198C164.666 52.1745 161.28 53.5802 158.782 56.0791C156.285 58.5781 154.88 61.9663 154.876 65.5004V237.37C154.88 240.904 156.285 244.293 158.782 246.792C161.28 249.291 164.666 250.696 168.198 250.7H314.482C318.014 250.696 321.401 249.291 323.898 246.792C326.395 244.293 327.8 240.904 327.804 237.37V65.5004C327.8 61.9663 326.395 58.5782 323.898 56.0792C321.401 53.5802 318.014 52.1745 314.482 52.1705Z" fill="white"/>
<path d="M329.851 277C348.711 277 364 261.702 364 242.83C364 223.959 348.711 208.66 329.851 208.66C310.99 208.66 295.701 223.959 295.701 242.83C295.701 261.702 310.99 277 329.851 277Z" fill="#212B3E"/>
<path d="M346.183 238.373H334.305V226.488C334.305 225.306 333.835 224.172 333 223.336C332.165 222.501 331.032 222.031 329.85 222.031C328.669 222.031 327.536 222.501 326.701 223.336C325.865 224.172 325.396 225.306 325.396 226.488V238.373H313.518C312.336 238.373 311.203 238.843 310.368 239.679C309.533 240.514 309.063 241.648 309.063 242.83C309.063 244.012 309.533 245.146 310.368 245.982C311.203 246.817 312.336 247.287 313.518 247.287H325.396V259.172C325.396 260.354 325.865 261.488 326.701 262.324C327.536 263.16 328.669 263.629 329.85 263.629C331.032 263.629 332.165 263.16 333 262.324C333.835 261.488 334.305 260.354 334.305 259.172V247.287H346.183C347.364 247.287 348.497 246.817 349.332 245.982C350.168 245.146 350.637 244.012 350.637 242.83C350.637 241.648 350.168 240.514 349.332 239.679C348.497 238.843 347.364 238.373 346.183 238.373Z" fill="white"/>
<path d="M292.466 146.613H218.491C218.081 146.613 217.676 146.533 217.298 146.376C216.919 146.22 216.575 145.99 216.286 145.701C215.996 145.411 215.766 145.068 215.61 144.689C215.453 144.311 215.372 143.905 215.372 143.496C215.372 143.086 215.453 142.68 215.61 142.302C215.766 141.923 215.996 141.58 216.286 141.29C216.575 141.001 216.919 140.771 217.298 140.615C217.676 140.458 218.081 140.378 218.491 140.378H292.466C293.291 140.379 294.083 140.708 294.666 141.293C295.25 141.877 295.578 142.669 295.578 143.496C295.578 144.322 295.25 145.114 294.666 145.698C294.083 146.283 293.291 146.612 292.466 146.613Z" fill="#6B9094"/>
<path d="M305.316 157.133H218.491C218.081 157.133 217.676 157.053 217.298 156.897C216.919 156.74 216.575 156.511 216.286 156.221C215.996 155.932 215.766 155.588 215.61 155.209C215.453 154.831 215.372 154.425 215.372 154.016C215.372 153.606 215.453 153.201 215.61 152.822C215.766 152.444 215.996 152.1 216.286 151.81C216.575 151.521 216.919 151.291 217.298 151.135C217.676 150.979 218.081 150.898 218.491 150.899H305.316C306.143 150.899 306.935 151.227 307.519 151.812C308.103 152.396 308.432 153.189 308.432 154.016C308.432 154.843 308.103 155.635 307.519 156.22C306.935 156.805 306.143 157.133 305.316 157.133Z" fill="#6B9094"/>
<path d="M292.466 193.759H218.491C218.081 193.76 217.676 193.679 217.298 193.523C216.919 193.367 216.575 193.137 216.286 192.848C215.996 192.558 215.766 192.214 215.61 191.836C215.453 191.457 215.372 191.052 215.372 190.642C215.372 190.233 215.453 189.827 215.61 189.448C215.766 189.07 215.996 188.726 216.286 188.437C216.575 188.147 216.919 187.918 217.298 187.761C217.676 187.605 218.081 187.525 218.491 187.525H292.466C293.292 187.525 294.084 187.853 294.669 188.438C295.253 189.023 295.581 189.815 295.581 190.642C295.581 191.469 295.253 192.262 294.669 192.846C294.084 193.431 293.292 193.759 292.466 193.759Z" fill="#6B9094"/>
<path d="M305.316 204.28H218.491C218.081 204.28 217.676 204.2 217.298 204.043C216.919 203.887 216.575 203.657 216.286 203.368C215.996 203.078 215.766 202.735 215.61 202.356C215.453 201.978 215.372 201.572 215.372 201.162C215.372 200.753 215.453 200.347 215.61 199.969C215.766 199.59 215.996 199.247 216.286 198.957C216.575 198.668 216.919 198.438 217.298 198.282C217.676 198.125 218.081 198.045 218.491 198.045H305.316C305.726 198.045 306.131 198.125 306.51 198.282C306.888 198.438 307.232 198.668 307.521 198.957C307.811 199.247 308.041 199.59 308.198 199.969C308.354 200.347 308.435 200.753 308.435 201.162C308.435 201.572 308.354 201.978 308.198 202.356C308.041 202.735 307.811 203.078 307.521 203.368C307.232 203.657 306.888 203.887 306.51 204.043C306.131 204.2 305.726 204.28 305.316 204.28Z" fill="#6B9094"/>
<path d="M201.921 161.909H175.742C175.346 161.908 174.966 161.751 174.686 161.47C174.406 161.19 174.248 160.81 174.248 160.414V137.097C174.248 136.701 174.406 136.321 174.686 136.041C174.966 135.761 175.346 135.603 175.742 135.603H201.921C202.317 135.603 202.697 135.761 202.977 136.041C203.257 136.321 203.414 136.701 203.415 137.097V160.414C203.414 160.81 203.257 161.19 202.977 161.47C202.697 161.751 202.317 161.908 201.921 161.909Z" fill="#6B9094"/>
<path d="M201.921 209.055H175.742C175.346 209.055 174.966 208.897 174.686 208.617C174.406 208.337 174.248 207.957 174.248 207.561V184.244C174.248 183.848 174.406 183.468 174.686 183.188C174.966 182.907 175.346 182.75 175.742 182.749H201.921C202.317 182.75 202.697 182.907 202.977 183.188C203.257 183.468 203.414 183.848 203.415 184.244V207.561C203.414 207.957 203.257 208.337 202.977 208.617C202.697 208.897 202.317 209.055 201.921 209.055Z" fill="#6B9094"/>
<path d="M292.549 94.1292H238.01C237.184 94.1292 236.391 93.8007 235.807 93.2162C235.223 92.6316 234.895 91.8387 234.895 91.012C234.895 90.1853 235.223 89.3925 235.807 88.8079C236.391 88.2233 237.184 87.8949 238.01 87.8949H292.549C293.375 87.8949 294.167 88.2233 294.751 88.8079C295.336 89.3925 295.664 90.1853 295.664 91.012C295.664 91.8387 295.336 92.6316 294.751 93.2162C294.167 93.8007 293.375 94.1292 292.549 94.1292Z" fill="#CCCCCC"/>
<path d="M305.399 104.649H238.01C237.601 104.649 237.196 104.569 236.818 104.412C236.44 104.255 236.096 104.026 235.807 103.736C235.518 103.447 235.288 103.103 235.132 102.725C234.975 102.347 234.895 101.942 234.895 101.532C234.895 101.123 234.975 100.718 235.132 100.339C235.288 99.9612 235.518 99.6176 235.807 99.3281C236.096 99.0387 236.44 98.8091 236.818 98.6524C237.196 98.4958 237.601 98.4152 238.01 98.4152H305.399C306.225 98.4152 307.018 98.7436 307.602 99.3281C308.186 99.9127 308.514 100.706 308.514 101.532C308.514 102.359 308.186 103.152 307.602 103.736C307.018 104.321 306.225 104.649 305.399 104.649Z" fill="#CCCCCC"/>
<path d="M225.94 117.399H175.66C175.264 117.398 174.884 117.241 174.604 116.961C174.324 116.68 174.166 116.3 174.166 115.904V76.6402C174.166 76.2439 174.324 75.864 174.604 75.5838C174.884 75.3035 175.264 75.1459 175.66 75.1455H225.94C226.336 75.1459 226.716 75.3035 226.996 75.5838C227.276 75.864 227.433 76.2439 227.434 76.6402V115.904C227.433 116.3 227.276 116.68 226.996 116.961C226.716 117.241 226.336 117.398 225.94 117.399Z" fill="#212B3E"/>
</g>
<defs>
<clipPath id="clip0_424_51">
<rect width="304" height="273" fill="white" transform="translate(60 4)"/>
</clipPath>
</defs>
</svg>
