<svg width="73" height="64" viewBox="0 0 73 64" fill="none" xmlns="http://www.w3.org/2000/svg">
<path d="M8.11111 4C3.63733 4 0 7.5875 0 12V52C0 56.4125 3.63733 60 8.11111 60H64.8889C69.3627 60 73 56.4125 73 52V12C73 7.5875 69.3627 4 64.8889 4H8.11111ZM27.0582 21.6625L36.1832 39.6625C36.9309 41.15 36.3226 42.95 34.8271 43.6875C33.3316 44.425 31.4939 43.825 30.7462 42.35L29.5549 39.9875H19.1372L17.9458 42.35C17.1981 43.8375 15.3731 44.4375 13.8649 43.6875C12.3568 42.9375 11.7484 41.15 12.5089 39.6625L21.6339 21.6625C22.1535 20.65 23.2054 20 24.3587 20C25.512 20 26.5639 20.6375 27.0835 21.6625H27.0582ZM27.0075 34.9875L24.3333 29.7125L21.6592 34.9875H27.0075ZM38.5278 23C38.5278 21.3375 39.8839 20 41.5694 20H48.6667C55.3837 20 60.8333 25.375 60.8333 32C60.8333 38.625 55.3837 44 48.6667 44H41.5694C39.8839 44 38.5278 42.6625 38.5278 41V23ZM44.6111 26V38H48.6667C52.0252 38 54.75 35.3125 54.75 32C54.75 28.6875 52.0252 26 48.6667 26H44.6111Z" fill="#212B3E"/>
</svg>
