<svg width="181" height="91" viewBox="0 0 181 91" fill="none" xmlns="http://www.w3.org/2000/svg">
<path d="M179.927 50.7082C179.901 50.7082 179.875 50.7067 179.848 50.7031L24.5953 29.8014C24.2751 29.7583 24.0505 29.4631 24.0934 29.1416C24.1363 28.8205 24.43 28.5964 24.7513 28.6382L180.004 49.5396C180.325 49.5826 180.549 49.8779 180.506 50.1994C180.467 50.4943 180.216 50.7082 179.927 50.7082Z" fill="#343351"/>
<path d="M145.038 90.1885C144.99 90.1885 144.941 90.1823 144.892 90.1697L0.439104 52.8167C0.126324 52.7357 -0.0620452 52.4158 0.0186848 52.1021C0.0994148 51.788 0.418825 51.6003 0.731215 51.6805L145.184 89.0336C145.497 89.1145 145.685 89.4344 145.605 89.7481C145.536 90.0125 145.299 90.1885 145.038 90.1885Z" fill="#343351"/>
<path d="M157.059 78.7432C157.059 73.3138 154.757 68.9111 151.908 68.8579V68.8528H148.127V71.8561C147.218 73.6372 146.655 76.0637 146.655 78.7428C146.655 81.4219 147.218 83.8484 148.127 85.6295V88.6332H151.908V88.6281C154.757 88.5753 157.059 84.1722 157.059 78.7432Z" fill="#1D1D33"/>
<path d="M148.128 88.6332C151.001 88.6332 153.33 84.2053 153.33 78.7432C153.33 73.2811 151.001 68.8531 148.128 68.8531C145.255 68.8531 142.926 73.2811 142.926 78.7432C142.926 84.2053 145.255 88.6332 148.128 88.6332Z" fill="#343351"/>
<path d="M150.139 78.7428C150.139 75.987 149.131 73.7487 147.874 73.6635V73.6556H146.369V74.7277C145.818 75.6585 145.463 77.1088 145.463 78.7428C145.463 80.3769 145.818 81.8271 146.369 82.758V83.83H147.874V83.8218C149.131 83.7373 150.139 81.4986 150.139 78.7428Z" fill="#B2B8D9"/>
<path d="M146.455 83.8304C147.746 83.8304 148.793 81.5528 148.793 78.7432C148.793 75.9336 147.746 73.656 146.455 73.656C145.163 73.656 144.117 75.9336 144.117 78.7432C144.117 81.5528 145.163 83.8304 146.455 83.8304Z" fill="#E03A5E"/>
<path d="M122.907 79.5125L101.407 76.5272L10.9012 67.356V58.3323L102.347 66.3019L121.262 65.7278L122.907 79.5125Z" fill="#131321"/>
<path d="M32.214 68.9134C32.214 64.8619 30.4964 61.5758 28.3701 61.5363V61.5323H25.5488V63.7738C24.8699 65.1032 24.4498 66.9136 24.4498 68.913C24.4498 70.9124 24.8695 72.7232 25.5488 74.0522V76.2937H28.3701V76.2901C30.4964 76.251 32.214 72.9653 32.214 68.9134Z" fill="#1D1D33"/>
<path d="M25.5489 76.2946C27.6929 76.2946 29.4309 72.9902 29.4309 68.914C29.4309 64.8378 27.6929 61.5333 25.5489 61.5333C23.4049 61.5333 21.6668 64.8378 21.6668 68.914C21.6668 72.9902 23.4049 76.2946 25.5489 76.2946Z" fill="#343351"/>
<path d="M27.0496 68.9135C27.0496 66.857 26.2977 65.1862 25.3593 65.1228V65.1169H24.2357V65.9168C23.8251 66.6114 23.5599 67.694 23.5599 68.9131C23.5599 70.1326 23.8251 71.2148 24.2357 71.9094V72.7096H25.3593V72.7033C26.2973 72.6408 27.0496 70.9703 27.0496 68.9135Z" fill="#B2B8D9"/>
<path d="M26.045 68.9138C26.045 71.0106 25.2638 72.7103 24.3001 72.7103C23.3364 72.7103 22.5552 71.0106 22.5552 68.9138C22.5552 66.8171 23.3364 65.1173 24.3001 65.1173C25.2638 65.1173 26.045 66.8171 26.045 68.9138Z" fill="#5772A4"/>
<path d="M98.569 82.8181L84.02 81.3675C82.96 81.3675 82.1005 80.5606 82.1005 79.5652V70.4778C82.1005 69.4824 82.96 68.6755 84.02 68.6755L98.569 70.1262C99.629 70.1262 100.489 70.933 100.489 71.9284V81.0159C100.489 82.0113 99.629 82.8181 98.569 82.8181Z" fill="#B2B8D9"/>
<path d="M140.021 2.79581V65.8906L92.8247 66.8458V0.524639L140.021 2.79581Z" fill="#B2B8D9" stroke="#5772A4"/>
<path d="M164.142 85.0202H121.987C120.927 85.0202 120.068 84.1589 120.068 83.0963V65.4799H166.071V83.0857C166.071 84.1539 165.207 85.0202 164.142 85.0202Z" fill="#1D1D33"/>
<path d="M120.778 67.356H97.9824C96.9423 67.356 96.0991 66.5104 96.0991 65.4673V59.4622H120.778V67.356Z" fill="#B2B8D9"/>
<path d="M165.726 45.2461L166.851 63.7429C166.851 63.7429 167.731 67.3442 161.093 67.356L155.715 51.9243L161.401 43.8662L165.726 45.2461Z" fill="#5772A4"/>
<path d="M129.488 67.3559L130.155 75.6166C130.155 75.6166 130.262 77.9347 131.762 78.4686C132.995 78.9074 135.632 79.047 138.327 78.9055H156.973C156.973 78.9055 160.002 79.0025 160.084 75.1203L161.093 67.3559C161.093 67.3559 161.135 53.7684 164.328 48.5275H124.394C124.394 48.5275 126.366 49.8928 127.781 53.6897C128.973 56.8883 129.665 62.0306 129.488 67.3559Z" fill="#B2B8D9"/>
<path d="M163.416 34.8828H158.771V35.4812H163.416V34.8828Z" fill="#1D1D33"/>
<path d="M159.2 45.2461C162.906 45.2461 163.998 42.833 164.045 42.7266L163.498 42.4876L163.771 42.6073L163.498 42.4865C163.456 42.5819 162.413 44.8175 158.786 44.6372L158.756 45.2352C158.908 45.243 159.056 45.2461 159.2 45.2461Z" fill="#1D1D33"/>
<path d="M164.454 45.6157H169.249C169.822 45.6157 170.287 45.1495 170.287 44.5745V33.5828C170.287 33.0078 169.822 32.5416 169.249 32.5416H164.454C163.881 32.5416 163.416 33.0078 163.416 33.5828V44.5745C163.416 45.1495 163.881 45.6157 164.454 45.6157Z" fill="#1D1D33"/>
<path d="M166.851 31.4458C168.268 31.4458 169.416 30.2943 169.416 28.8738C169.416 27.4534 168.268 26.3019 166.851 26.3019C165.435 26.3019 164.287 27.4534 164.287 28.8738C164.287 30.2943 165.435 31.4458 166.851 31.4458Z" fill="#1D1D33"/>
<path d="M149.992 15.8575C149.992 15.8575 159.698 15.7019 160.16 20.412V23.8867C160.16 23.8867 164.24 25.8172 163.624 28.1333H124.272L113.766 15.238L119.498 13.0869L149.992 15.8575Z" fill="#B2B8D9"/>
<path d="M120.068 11.2582H97.5507V16.6931H120.068V11.2582Z" fill="#B2B8D9"/>
<path d="M125.71 49.9671C125.71 49.9671 133.069 49.4008 133.553 53.38H127.655C127.655 53.38 127.088 51.4616 125.71 49.9671Z" fill="#B2B8D9"/>
<path d="M163.619 49.9671C163.619 49.9671 157.034 49.4008 156.55 53.38H162.447C162.447 53.38 162.827 51.1991 163.619 49.9671Z" fill="#B2B8D9"/>
<path d="M159.981 55.4013C160.031 55.1147 130.851 55.4013 130.851 55.4013C130.851 55.4013 131.916 58.2158 135.883 58.2158H155.11C155.11 58.2158 159.53 57.9893 159.981 55.4013Z" fill="#1D1D33"/>
<path d="M159.723 59.6136C159.772 59.332 131.109 59.6136 131.109 59.6136C131.109 59.6136 132.155 62.3783 136.052 62.3783H154.938C154.938 62.3783 159.28 62.1558 159.723 59.6136Z" fill="#1D1D33"/>
<path d="M158.836 63.7457C158.882 63.459 131.996 63.7457 131.996 63.7457C131.996 63.7457 132.977 66.5601 136.633 66.5601H154.348C154.348 66.5601 158.42 66.3337 158.836 63.7457Z" fill="#1D1D33"/>
<path d="M158.55 67.9048C158.595 67.6658 132.186 67.9048 132.186 67.9048C132.186 67.9048 133.149 70.2519 136.741 70.2519H154.142C154.142 70.2519 158.141 70.0626 158.55 67.9048Z" fill="#1D1D33"/>
<path d="M158.55 71.6594C158.595 71.4518 132.186 71.6594 132.186 71.6594C132.186 71.6594 133.149 73.6967 136.741 73.6967H154.142C154.142 73.6967 158.141 73.5333 158.55 71.6594Z" fill="#1D1D33"/>
<path d="M158.55 75.1536C158.595 74.9459 132.186 75.1536 132.186 75.1536C132.186 75.1536 133.149 77.1909 136.741 77.1909H154.142C154.142 77.1909 158.141 77.027 158.55 75.1536Z" fill="#1D1D33"/>
<path d="M124.531 66.6441H123.928C123.613 66.6441 123.358 66.3887 123.358 66.0731V60.0332C123.358 59.7179 123.613 59.4625 123.928 59.4625H124.531C124.846 59.4625 125.1 59.7179 125.1 60.0332V66.0735C125.101 66.3887 124.846 66.6441 124.531 66.6441Z" fill="#B2B8D9"/>
<path d="M112.584 15.2052H98.1637C98.1637 15.2052 95.1635 15.6256 95.1635 20.511V59.4625C95.1635 59.4625 95.1634 61.9215 98.6477 61.5331H110.003L112.165 65.2858C112.165 65.2858 113.1 67.4858 116.068 67.3564H129.488C129.488 67.3564 131.295 49.2393 120.068 46.1335V27.7579H124.23C124.23 27.7579 126.52 15.2052 112.584 15.2052Z" fill="#5772A4"/>
<path d="M101.194 61.5328H100.746V27.3246L103.087 21.7185C103.091 21.6786 103.525 19.795 106.348 19.2556L109.569 19.2517C109.77 18.4977 110.724 15.6293 113.722 15.0179L113.811 15.4579C110.661 16.1001 109.972 19.484 109.965 19.5185L109.93 19.7003H106.39C103.915 20.1771 103.527 21.785 103.512 21.8534L101.194 27.4146V61.5328H101.194Z" fill="#343351"/>
<path d="M109.938 51.9243H106.551V56.956H109.938V51.9243Z" fill="#1D1D33"/>
<path d="M100.971 27.2421H95.1639V27.6911H100.971V27.2421Z" fill="#343351"/>
<path d="M110.616 40.9877H104.616C102.745 40.9028 102.323 39.2421 102.36 38.3758L102.359 28.6313C102.283 27.2503 102.555 26.2682 103.168 25.725C103.792 25.1731 104.528 25.2994 104.559 25.3045L118.165 25.301C118.93 25.301 119.506 25.5286 119.877 25.9776C120.484 26.7117 120.296 27.7548 120.288 27.799L119.848 27.7161C119.85 27.7075 120.004 26.8314 119.531 26.2619C119.248 25.9221 118.789 25.7496 118.165 25.7496H104.519C104.457 25.7426 103.917 25.6565 103.459 26.066C102.964 26.5087 102.739 27.3915 102.807 28.618L102.807 38.3848C102.804 38.4779 102.749 40.4526 104.626 40.5383L110.616 40.5379V40.9877Z" fill="#343351"/>
<path d="M120.292 46.1331H119.844V67.3559H120.292V46.1331Z" fill="#343351"/>
<path d="M163.161 36.6389C162.683 27.0782 157.296 27.7576 157.296 27.7576H120.068V48.5275H164.328L163.161 36.6389Z" fill="#343351"/>
<path d="M138.327 26.0105H133.036V27.747H138.327V26.0105Z" fill="#B2B8D9"/>
<path d="M156.55 26.0105H151.26V27.747H156.55V26.0105Z" fill="#B2B8D9"/>
<path d="M98.9056 12.5523C98.9056 12.5523 95.6795 12.6818 96.0024 10.2878L97.4427 5.62929C97.4427 5.62929 97.8089 3.17076 100.97 3.29983L136.778 4.65855C136.778 4.65855 142.521 4.91747 144.133 7.37599L150.908 15.9167L98.9056 12.5523Z" fill="#5772A4"/>
<path d="M113.358 15.2052C113.358 15.2052 116.039 13.7561 120.342 12.9082C123.411 12.3035 127.845 12.1858 130.262 12.2933C130.262 12.2933 134.254 12.5214 138.944 13.1022C143.058 13.6114 148.021 14.5239 149.992 15.8575C149.992 15.8575 116.649 14.1699 113.358 15.2052Z" fill="#343351"/>
<path d="M160.113 24.1061C157.482 23.5461 124.474 23.5637 124.143 23.5629L124.143 23.1139C125.505 23.1147 157.529 23.0975 160.206 23.6669L160.113 24.1061Z" fill="#343351"/>
<path d="M120.068 34.8828H115.423V35.4812H120.068V34.8828Z" fill="#1D1D33"/>
<path d="M119.639 45.2461C115.933 45.2461 114.841 42.833 114.794 42.7266L115.341 42.4876L115.068 42.6073L115.341 42.4865C115.383 42.5819 116.426 44.8175 120.053 44.6372L120.083 45.2352C119.931 45.243 119.783 45.2461 119.639 45.2461Z" fill="#1D1D33"/>
<path d="M114.385 45.6157H109.59C109.017 45.6157 108.552 45.1495 108.552 44.5745V33.5828C108.552 33.0078 109.017 32.5416 109.59 32.5416H114.385C114.958 32.5416 115.423 33.0078 115.423 33.5828V44.5745C115.423 45.1495 114.958 45.6157 114.385 45.6157Z" fill="#1D1D33"/>
<path d="M111.988 31.4458C113.404 31.4458 114.552 30.2943 114.552 28.8738C114.552 27.4534 113.404 26.3019 111.988 26.3019C110.571 26.3019 109.423 27.4534 109.423 28.8738C109.423 30.2943 110.571 31.4458 111.988 31.4458Z" fill="#1D1D33"/>
<path d="M129.669 74.78V76.707C129.669 77.3054 129.289 77.7904 128.819 77.7904H121.822C121.352 77.7904 120.971 77.3058 120.971 76.707V74.78C120.971 74.1816 121.352 73.6967 121.822 73.6967H128.819C129.289 73.6967 129.669 74.1812 129.669 74.78Z" fill="#F2B92C"/>
<path d="M124.402 73.6967V77.7904H121.822C121.352 77.7904 120.971 77.3058 120.971 76.707V74.78C120.971 74.1816 121.352 73.6967 121.822 73.6967H124.402Z" fill="#F3CF67"/>
<path d="M126.764 80.7336C126.764 82.0109 126.076 83.0466 125.227 83.0466C124.378 83.0466 123.69 82.0109 123.69 80.7336C123.69 79.4562 124.378 78.4205 125.227 78.4205C126.076 78.4201 126.764 79.4558 126.764 80.7336Z" fill="#F2B92C"/>
<path d="M129.936 80.2318C129.936 81.0543 129.493 81.7207 128.947 81.7207C128.4 81.7207 127.958 81.0543 127.958 80.2318C127.958 79.4096 128.4 78.7428 128.947 78.7428C129.493 78.7432 129.936 79.4096 129.936 80.2318Z" fill="#F2B92C"/>
<path d="M160.282 74.6502V76.3688C160.282 76.9027 160.555 77.3348 160.892 77.3348H165.912C166.249 77.3348 166.522 76.9027 166.522 76.3688V74.6502C166.522 74.1164 166.249 73.6842 165.912 73.6842H160.892C160.555 73.6838 160.282 74.1164 160.282 74.6502Z" fill="#F2B92C"/>
<path d="M164.061 73.6837V77.3347H165.912C166.249 77.3347 166.522 76.9026 166.522 76.3687V74.6502C166.522 74.1163 166.249 73.6841 165.912 73.6841H164.061V73.6837Z" fill="#F3CF67"/>
<path d="M165.012 82.0222C165.873 82.0222 166.571 81.0987 166.571 79.9594C166.571 78.8202 165.873 77.8967 165.012 77.8967C164.15 77.8967 163.452 78.8202 163.452 79.9594C163.452 81.0987 164.15 82.0222 165.012 82.0222Z" fill="#F2B92C"/>
<path d="M160.232 79.5124C160.232 80.2457 160.682 80.8402 161.236 80.8402C161.791 80.8402 162.24 80.2457 162.24 79.5124C162.24 78.7791 161.791 78.1846 161.236 78.1846C160.682 78.1846 160.232 78.7787 160.232 79.5124Z" fill="#F2B92C"/>
<path d="M114.384 78.7432C114.384 73.3138 112.083 68.9111 109.234 68.8579V68.8528H105.453V71.8561C104.543 73.6372 103.981 76.0637 103.981 78.7428C103.981 81.4219 104.543 83.8484 105.453 85.6295V88.6332H109.234V88.6281C112.083 88.5753 114.384 84.1722 114.384 78.7432Z" fill="#1D1D33"/>
<path d="M105.453 88.6332C108.326 88.6332 110.655 84.2053 110.655 78.7432C110.655 73.2811 108.326 68.8531 105.453 68.8531C102.58 68.8531 100.251 73.2811 100.251 78.7432C100.251 84.2053 102.58 88.6332 105.453 88.6332Z" fill="#343351"/>
<path d="M107.464 78.7428C107.464 75.987 106.456 73.7487 105.199 73.6635V73.6556H103.694V74.7277C103.144 75.6585 102.788 77.1088 102.788 78.7428C102.788 80.3769 103.144 81.8271 103.694 82.758V83.83H105.199V83.8218C106.456 83.7373 107.464 81.4986 107.464 78.7428Z" fill="#B2B8D9"/>
<path d="M106.118 78.7432C106.118 81.5529 105.071 83.8304 103.78 83.8304C102.489 83.8304 101.442 81.5525 101.442 78.7432C101.442 75.9335 102.489 73.656 103.78 73.656C105.071 73.6556 106.118 75.9335 106.118 78.7432Z" fill="#5772A4"/>
<path d="M80.8825 75.7433C80.8825 70.933 78.8432 67.0317 76.3191 66.9848V66.9805H72.9694V69.6416C72.1632 71.2197 71.6644 73.3697 71.6644 75.7433C71.6644 78.1174 72.1629 80.2669 72.9694 81.845V84.5062H76.3191V84.5019C78.8436 84.4549 80.8825 80.5536 80.8825 75.7433Z" fill="#1D1D33"/>
<path d="M72.9694 84.5062C75.5149 84.5062 77.5784 80.5829 77.5784 75.7433C77.5784 70.9037 75.5149 66.9805 72.9694 66.9805C70.4239 66.9805 68.3604 70.9037 68.3604 75.7433C68.3604 80.5829 70.4239 84.5062 72.9694 84.5062Z" fill="#343351"/>
<path d="M74.7509 75.7433C74.7509 73.3016 73.8582 71.3182 72.7443 71.2428V71.2357H71.4105V72.1853C70.923 73.0102 70.6079 74.295 70.6079 75.7429C70.6079 77.1908 70.923 78.476 71.4105 79.3004V80.2504H72.7443V80.2434C73.8582 80.1683 74.7509 78.185 74.7509 75.7433Z" fill="#B2B8D9"/>
<path d="M71.487 80.2508C72.6311 80.2508 73.5586 78.2327 73.5586 75.7433C73.5586 73.2538 72.6311 71.2357 71.487 71.2357C70.3428 71.2357 69.4153 73.2538 69.4153 75.7433C69.4153 78.2327 70.3428 80.2508 71.487 80.2508Z" fill="#5772A4"/>
<path d="M42.8032 70.6123C42.8032 66.3261 40.9862 62.8503 38.7371 62.8085V62.8046H35.7524V65.1759C35.0341 66.5819 34.5898 68.4976 34.5898 70.6127C34.5898 72.7278 35.0341 74.6435 35.7524 76.0495V78.4208H38.7371V78.4169C40.9866 78.3743 42.8032 74.8985 42.8032 70.6123Z" fill="#1D1D33"/>
<path d="M35.7525 78.4205C38.0205 78.4205 39.8592 74.9247 39.8592 70.6123C39.8592 66.3 38.0205 62.8042 35.7525 62.8042C33.4844 62.8042 31.6458 66.3 31.6458 70.6123C31.6458 74.9247 33.4844 78.4205 35.7525 78.4205Z" fill="#343351"/>
<path d="M37.3402 70.6119C37.3402 68.4365 36.5446 66.6691 35.5524 66.6018V66.5956H34.3641V67.4419C33.9296 68.1768 33.6488 69.322 33.6488 70.6119C33.6488 71.9018 33.9296 73.047 34.3641 73.7819V74.6282H35.5524V74.622C36.5446 74.5551 37.3402 72.7877 37.3402 70.6119Z" fill="#B2B8D9"/>
<path d="M36.2774 70.6124C36.2774 72.8304 35.451 74.6287 34.4315 74.6287C33.412 74.6287 32.5856 72.8304 32.5856 70.6124C32.5856 68.3944 33.412 66.5961 34.4315 66.5961C35.451 66.5961 36.2774 68.394 36.2774 70.6124Z" fill="#5772A4"/>
<path d="M22.6161 67.3982C22.6161 63.5035 20.9652 60.3453 18.9212 60.307V60.3035H16.2092V62.4581C15.5563 63.7359 15.1526 65.4763 15.1526 67.3982C15.1526 69.3201 15.5563 71.0606 16.2092 72.3383V74.493H18.9212V74.4895C20.9648 74.4511 22.6161 71.2929 22.6161 67.3982Z" fill="#1D1D33"/>
<path d="M16.2092 74.493C18.27 74.493 19.9407 71.3165 19.9407 67.3982C19.9407 63.4799 18.27 60.3035 16.2092 60.3035C14.1483 60.3035 12.4777 63.4799 12.4777 67.3982C12.4777 71.3165 14.1483 74.493 16.2092 74.493Z" fill="#343351"/>
<path d="M17.6518 67.3982C17.6518 65.4216 16.9288 63.8157 16.0271 63.7547V63.7488H14.9472V64.5177C14.5525 65.1853 14.2974 66.2257 14.2974 67.3982C14.2974 68.5704 14.5525 69.6108 14.9472 70.2788V71.0477H16.0271V71.0418C16.9288 70.9808 17.6518 69.3749 17.6518 67.3982Z" fill="#B2B8D9"/>
<path d="M15.0092 71.0477C15.9353 71.0477 16.6862 69.4138 16.6862 67.3982C16.6862 65.3827 15.9353 63.7488 15.0092 63.7488C14.083 63.7488 13.3322 65.3827 13.3322 67.3982C13.3322 69.4138 14.083 71.0477 15.0092 71.0477Z" fill="#5772A4"/>
<path d="M3.09424 58.2157L92.3247 67.356V0L3.09424 12.2578V58.2157Z" fill="#B2B8D9"/>
<path d="M92.3251 58.6069C92.3173 58.6069 92.3095 58.6065 92.3021 58.6061L3.07161 53.3824C2.85672 53.3699 2.69253 53.1849 2.70501 52.9694C2.71749 52.7539 2.90313 52.5892 3.11724 52.6017L92.3477 57.8258C92.5626 57.8383 92.7268 58.0233 92.7143 58.2388C92.7022 58.4465 92.5302 58.6069 92.3251 58.6069Z" fill="#5772A4"/>
<path d="M92.3251 60.2429C92.3223 60.2429 92.3192 60.2429 92.3161 60.2425L3.08565 55.0188C3.00531 55.0141 2.94369 54.9449 2.94837 54.8639C2.95305 54.7834 3.02247 54.7196 3.10281 54.7259L92.3332 59.9496C92.414 59.9543 92.4752 60.0239 92.4709 60.1044C92.4662 60.1827 92.4019 60.2429 92.3251 60.2429Z" fill="#5772A4"/>
<path d="M5.51379 58.6593C5.40615 58.6593 5.31879 58.5717 5.31879 58.4637V53.1337C5.31879 53.0257 5.40615 52.9381 5.51379 52.9381C5.62143 52.9381 5.70879 53.0257 5.70879 53.1337V58.4637C5.70879 58.5717 5.62143 58.6593 5.51379 58.6593Z" fill="#5772A4"/>
<path d="M8.51409 58.9342C8.40645 58.9342 8.31909 58.8466 8.31909 58.7386V53.4086C8.31909 53.3006 8.40645 53.213 8.51409 53.213C8.62173 53.213 8.70909 53.3006 8.70909 53.4086V58.7386C8.70909 58.8466 8.62173 58.9342 8.51409 58.9342Z" fill="#5772A4"/>
<path d="M11.514 59.2092C11.4063 59.2092 11.319 59.1216 11.319 59.0137V53.6836C11.319 53.5756 11.4063 53.488 11.514 53.488C11.6216 53.488 11.709 53.5756 11.709 53.6836V59.0137C11.709 59.1216 11.622 59.2092 11.514 59.2092Z" fill="#5772A4"/>
<path d="M14.5466 59.6621C14.4389 59.6621 14.3516 59.5745 14.3516 59.4665V54.1365C14.3516 54.0285 14.4389 53.9409 14.5466 53.9409C14.6542 53.9409 14.7416 54.0285 14.7416 54.1365V59.4665C14.7416 59.5745 14.6542 59.6621 14.5466 59.6621Z" fill="#5772A4"/>
<path d="M17.5464 59.937C17.4388 59.937 17.3514 59.8494 17.3514 59.7414V54.4114C17.3514 54.3034 17.4388 54.2158 17.5464 54.2158C17.6541 54.2158 17.7414 54.3034 17.7414 54.4114V59.7414C17.7414 59.8494 17.6545 59.937 17.5464 59.937Z" fill="#5772A4"/>
<path d="M20.5467 60.212C20.4391 60.212 20.3517 60.1244 20.3517 60.0165V54.6864C20.3517 54.5785 20.4391 54.4908 20.5467 54.4908C20.6544 54.4908 20.7417 54.5785 20.7417 54.6864V60.0165C20.7417 60.1248 20.6548 60.212 20.5467 60.212Z" fill="#5772A4"/>
<path d="M23.9667 60.548C23.859 60.548 23.7717 60.4604 23.7717 60.3524V54.4119C23.7717 54.3039 23.859 54.2163 23.9667 54.2163C24.0743 54.2163 24.1617 54.3039 24.1617 54.4119V60.3524C24.1617 60.4604 24.0743 60.548 23.9667 60.548Z" fill="#5772A4"/>
<path d="M26.9665 60.8225C26.8589 60.8225 26.7715 60.7349 26.7715 60.627V54.6864C26.7715 54.5785 26.8589 54.4908 26.9665 54.4908C27.0742 54.4908 27.1615 54.5785 27.1615 54.6864V60.627C27.1615 60.7353 27.0742 60.8225 26.9665 60.8225Z" fill="#5772A4"/>
<path d="M29.9668 61.0975C29.8591 61.0975 29.7718 61.0099 29.7718 60.902V54.8683C29.7718 54.7603 29.8591 54.6727 29.9668 54.6727C30.0744 54.6727 30.1618 54.7603 30.1618 54.8683V60.902C30.1618 61.0103 30.0744 61.0975 29.9668 61.0975Z" fill="#5772A4"/>
<path d="M32.999 61.5508C32.8914 61.5508 32.804 61.4632 32.804 61.3552V55.5723C32.804 55.4643 32.8914 55.3767 32.999 55.3767C33.1067 55.3767 33.194 55.4643 33.194 55.5723V61.3552C33.194 61.4632 33.1067 61.5508 32.999 61.5508Z" fill="#5772A4"/>
<path d="M35.9993 61.8257C35.8917 61.8257 35.8043 61.7381 35.8043 61.6301V55.2972C35.8043 55.1893 35.8917 55.1017 35.9993 55.1017C36.107 55.1017 36.1943 55.1893 36.1943 55.2972V61.6301C36.1943 61.7381 36.107 61.8257 35.9993 61.8257Z" fill="#5772A4"/>
<path d="M38.9992 62.1007C38.8916 62.1007 38.8042 62.0131 38.8042 61.9051V55.5723C38.8042 55.4643 38.8916 55.3767 38.9992 55.3767C39.1068 55.3767 39.1942 55.4643 39.1942 55.5723V61.9051C39.1942 62.0131 39.1072 62.1007 38.9992 62.1007Z" fill="#5772A4"/>
<path d="M42.2093 62.5434C42.1016 62.5434 42.0143 62.4558 42.0143 62.3478V55.6039C42.0143 55.4959 42.1016 55.4083 42.2093 55.4083C42.3169 55.4083 42.4043 55.4959 42.4043 55.6039V62.3478C42.4043 62.4558 42.3169 62.5434 42.2093 62.5434Z" fill="#5772A4"/>
<path d="M46.3706 62.8954C46.263 62.8954 46.1756 62.8078 46.1756 62.6998V55.7419C46.1756 55.634 46.263 55.5464 46.3706 55.5464C46.4782 55.5464 46.5656 55.634 46.5656 55.7419V62.6998C46.5656 62.8078 46.4786 62.8954 46.3706 62.8954Z" fill="#5772A4"/>
<path d="M51.0482 63.2106C50.9406 63.2106 50.8532 63.123 50.8532 63.0151V56.0979C50.8532 55.99 50.9406 55.9023 51.0482 55.9023C51.1559 55.9023 51.2432 55.99 51.2432 56.0979V63.0151C51.2432 63.1234 51.1562 63.2106 51.0482 63.2106Z" fill="#5772A4"/>
<path d="M56.4197 63.9628C56.3121 63.9628 56.2247 63.8751 56.2247 63.7672V56.8093C56.2247 56.7014 56.3121 56.6138 56.4197 56.6138C56.5274 56.6138 56.6147 56.7014 56.6147 56.8093V63.7672C56.6147 63.8755 56.5274 63.9628 56.4197 63.9628Z" fill="#5772A4"/>
<path d="M62.517 64.5373C62.4093 64.5373 62.322 64.4497 62.322 64.3418V56.6478C62.322 56.5399 62.4093 56.4523 62.517 56.4523C62.6246 56.4523 62.712 56.5399 62.712 56.6478V64.3418C62.712 64.4497 62.6246 64.5373 62.517 64.5373Z" fill="#5772A4"/>
<path d="M68.3603 65.1709C68.2527 65.1709 68.1653 65.0833 68.1653 64.9754V56.8125C68.1653 56.7046 68.2527 56.6169 68.3603 56.6169C68.468 56.6169 68.5553 56.7046 68.5553 56.8125V64.9754C68.5553 65.0837 68.468 65.1709 68.3603 65.1709Z" fill="#5772A4"/>
<path d="M73.7314 65.9234C73.6238 65.9234 73.5364 65.8358 73.5364 65.7278V57.2622C73.5364 57.1543 73.6238 57.0667 73.7314 57.0667C73.8391 57.0667 73.9264 57.1543 73.9264 57.2622V65.7278C73.9264 65.8358 73.8395 65.9234 73.7314 65.9234Z" fill="#5772A4"/>
<path d="M79.8287 66.4975C79.721 66.4975 79.6337 66.4099 79.6337 66.302V57.4844C79.6337 57.3764 79.721 57.2888 79.8287 57.2888C79.9363 57.2888 80.0237 57.3764 80.0237 57.4844V66.302C80.0237 66.4099 79.9367 66.4975 79.8287 66.4975Z" fill="#5772A4"/>
<path d="M86.2278 67.2293C86.1202 67.2293 86.0328 67.1417 86.0328 67.0338V58.2162C86.0328 58.1082 86.1202 58.0206 86.2278 58.0206C86.3355 58.0206 86.4228 58.1082 86.4228 58.2162V67.0338C86.4228 67.1417 86.3355 67.2293 86.2278 67.2293Z" fill="#5772A4"/>
<path d="M60.8392 72.7686L38.9996 70.6124V68.4558L60.8392 70.6124V72.7686Z" fill="#5772A4"/>
<path d="M99.2245 84.3873C99.0448 84.3873 98.8829 84.2617 98.8435 84.0783C98.7316 83.555 96.1845 71.2108 103.009 67.1612C103.195 67.0517 103.434 67.1131 103.543 67.2989C103.653 67.485 103.592 67.7248 103.406 67.8347C97.0597 71.6007 99.5798 83.792 99.606 83.9148C99.6508 84.126 99.517 84.3341 99.3061 84.3795C99.2791 84.3846 99.2515 84.3873 99.2245 84.3873Z" fill="#1D1D33"/>
<path d="M113.045 80.9952C114.457 80.9115 115.868 80.9905 117.28 81.0527C117.319 80.9029 117.33 80.7457 117.328 80.5893C117.307 78.8113 117.362 76.8909 116.918 75.1661C116.487 73.4863 115.88 71.8561 115.003 70.3543C113.831 68.3463 111.226 66.2859 108.779 66.3074C107.537 66.3184 106.219 66.2366 104.987 66.4635C103.279 66.7783 101.953 67.6873 100.957 69.109C102.837 67.6294 105.657 67.7905 107.71 69.0202C109.527 70.1086 111.208 72.1323 111.924 74.1367C112.319 75.2416 112.591 76.4748 112.767 77.6426C112.805 77.8961 113.024 79.9369 113.045 80.9952Z" fill="#343351"/>
<path d="M12.7354 64.0694L6.70288 63.597V60.3519L12.7354 60.8244V64.0694Z" fill="#B2B8D9"/>
<path d="M12.7354 68.1132L7.83661 67.6412V64.3961L12.7354 64.8682V68.1132Z" fill="#B2B8D9"/>
<path d="M122.783 85.0159C119.64 85.0159 118.48 80.2334 118.43 80.0245L115.849 67.401L116.287 67.311L118.868 79.9283C118.878 79.9705 120.049 84.7871 122.987 84.5594L123.02 85.0072C122.94 85.0127 122.861 85.0159 122.783 85.0159Z" fill="#1D1D33"/>
<path d="M120.068 71.7677H117.016V72.2167H120.068V71.7677Z" fill="#1D1D33"/>
<path d="M126.972 46.3741C127.927 45.9845 128.978 45.8187 130.018 45.681C134.514 45.0854 139.063 44.9387 143.597 44.9094C143.841 44.9078 144.133 44.9289 144.247 45.1104C144.422 45.3908 143.997 45.6806 143.637 45.7843C142.878 46.0025 142.079 46.0819 141.287 46.1547C139.197 46.3471 137.103 46.5047 135.007 46.6275C134.107 46.6803 132.892 46.6987 132.075 47.0851C131.82 47.206 131.604 47.3788 131.37 47.5286C129.97 48.427 128.078 48.4282 126.356 48.2972C126.083 48.2765 125.796 48.2487 125.578 48.1122C124.577 47.4848 126.412 46.6029 126.972 46.3741Z" fill="#1D1D33"/>
<path d="M146.472 46.4323C147.285 46.0596 148.181 45.9118 149.067 45.7921C152.901 45.2742 156.782 45.2058 160.65 45.2543C160.859 45.257 161.108 45.2828 161.206 45.4667C161.356 45.7498 160.996 46.0318 160.689 46.1296C160.042 46.3349 159.361 46.4003 158.685 46.4593C156.902 46.6154 155.117 46.737 153.329 46.8238C152.561 46.8614 151.525 46.8586 150.829 47.2306C150.612 47.3467 150.429 47.5161 150.23 47.6616C149.04 48.5353 147.425 48.504 145.956 48.3433C145.723 48.3179 145.478 48.2854 145.291 48.145C144.433 47.5008 145.995 46.651 146.472 46.4323Z" fill="#1D1D33"/>
<path d="M3.09424 32.8487V33.4475L92.3247 31.2365V30.6373L3.09424 32.8487Z" fill="#5772A4"/>
<path d="M92.3247 11.6136L3.09424 20.1031V20.7039L92.3247 12.2144V11.6136Z" fill="#5772A4"/>
<path d="M92.3247 46.9974C83.6246 46.7714 33.4199 44.4794 3.09424 43.0671V43.6663C23.2627 44.6054 82.368 47.3381 92.3247 47.5817V46.9974Z" fill="#5772A4"/>
</svg>
