<svg width="72" height="51" viewBox="0 0 72 51" fill="none" xmlns="http://www.w3.org/2000/svg">
<path d="M60.03 0.618169C67.3312 6.48516 72 15.4582 72 25.5C72 35.5418 67.3312 44.5037 60.03 50.3818C58.8712 51.317 57.1725 51.1389 56.2275 49.9922C55.2825 48.8455 55.4625 47.1645 56.6212 46.2293C62.7187 41.3309 66.6 33.8719 66.6 25.5C66.6 17.1281 62.7187 9.66915 56.6212 4.75958C55.4625 3.82442 55.2937 2.14336 56.2275 0.996685C57.1612 -0.149995 58.8712 -0.316987 60.03 0.607037V0.618169ZM53.2237 8.91211C58.0837 12.8309 61.2 18.8092 61.2 25.5C61.2 32.1908 58.0837 38.1691 53.2237 42.0879C52.065 43.0231 50.3662 42.8449 49.4212 41.6982C48.4762 40.5516 48.6562 38.8705 49.815 37.9354C53.4712 34.9963 55.8 30.5209 55.8 25.5C55.8 20.4791 53.4712 16.0037 49.815 13.0535C48.6562 12.1184 48.4875 10.4373 49.4212 9.29063C50.355 8.14395 52.065 7.97696 53.2237 8.90098V8.91211ZM46.4175 17.2061C48.8362 19.1654 50.4 22.149 50.4 25.5C50.4 28.851 48.8362 31.8346 46.4175 33.794C45.2587 34.7291 43.56 34.551 42.615 33.4043C41.67 32.2576 41.85 30.5766 43.0087 29.6414C44.2237 28.6617 45 27.1699 45 25.5C45 23.8301 44.2237 22.3383 43.0087 21.3475C41.85 20.4123 41.6812 18.7313 42.615 17.5846C43.5487 16.4379 45.2587 16.2709 46.4175 17.1949V17.2061ZM33.8737 0.874224C35.1675 1.45313 36 2.72227 36 4.12501V46.875C36 48.2777 35.1675 49.5469 33.8737 50.1258C32.58 50.7047 31.0613 50.4709 30.0038 49.5357L14.8275 36.1875H7.2C3.22875 36.1875 0 32.9924 0 29.0625V21.9375C0 18.0076 3.22875 14.8125 7.2 14.8125H14.8275L30.0038 1.46426C31.0613 0.529107 32.58 0.30645 33.8737 0.874224Z" fill="#212B3E"/>
</svg>
