<svg width="53" height="53" viewBox="0 0 53 53" fill="none" xmlns="http://www.w3.org/2000/svg">
<rect x="0.75" y="0.75" width="51.5" height="51.5" rx="25.75" stroke="#212B3E" stroke-width="1.5"/>
<path d="M28.7146 13.625C28.7146 12.3805 27.7251 11.375 26.5003 11.375C25.2755 11.375 24.286 12.3805 24.286 13.625V23.75H14.3217C13.0969 23.75 12.1074 24.7555 12.1074 26C12.1074 27.2445 13.0969 28.25 14.3217 28.25H24.286V38.375C24.286 39.6195 25.2755 40.625 26.5003 40.625C27.7251 40.625 28.7146 39.6195 28.7146 38.375V28.25H38.6788C39.9036 28.25 40.8931 27.2445 40.8931 26C40.8931 24.7555 39.9036 23.75 38.6788 23.75H28.7146V13.625Z" fill="#F9F9F9"/>
<path d="M28.7146 13.625C28.7146 12.3805 27.7251 11.375 26.5003 11.375C25.2755 11.375 24.286 12.3805 24.286 13.625V23.75H14.3217C13.0969 23.75 12.1074 24.7555 12.1074 26C12.1074 27.2445 13.0969 28.25 14.3217 28.25H24.286V38.375C24.286 39.6195 25.2755 40.625 26.5003 40.625C27.7251 40.625 28.7146 39.6195 28.7146 38.375V28.25H38.6788C39.9036 28.25 40.8931 27.2445 40.8931 26C40.8931 24.7555 39.9036 23.75 38.6788 23.75H28.7146V13.625Z" fill="#212B3E"/>
</svg>
