<svg width="176" height="794" viewBox="0 0 176 794" fill="none" xmlns="http://www.w3.org/2000/svg">
<g clip-path="url(#clip0_118_2)">
<path d="M70.4 794L79.2 749.889C88 705.778 105.6 617.556 102.685 529.333C99.55 441.111 76.45 352.889 55.715 264.667C35.2 176.444 17.6 88.2223 8.79999 44.1111L-4.18926e-06 6.55377e-05L-2.2611e-06 44.1111C-3.32945e-07 88.2223 3.52337e-06 176.444 7.37968e-06 264.667C1.1236e-05 352.889 1.50923e-05 441.111 1.89486e-05 529.333C2.28049e-05 617.556 2.66613e-05 705.778 2.85894e-05 749.889L3.05176e-05 794L70.4 794Z" fill="#212B3E" fill-opacity="0.89"/>
</g>
<g clip-path="url(#clip1_118_2)">
<path d="M70.4 -1.4253e-06L79.2 44.1111C88 88.2222 105.6 176.444 102.685 264.667C99.55 352.889 76.45 441.111 55.715 529.333C35.2 617.556 17.6 705.778 8.79999 749.889L-4.18927e-06 794L-2.26111e-06 749.889C-3.32951e-07 705.778 3.52337e-06 617.556 7.37968e-06 529.333C1.1236e-05 441.111 1.50923e-05 352.889 1.89486e-05 264.667C2.28049e-05 176.444 2.66613e-05 88.2222 2.85894e-05 44.1111L3.05176e-05 -4.50258e-06L70.4 -1.4253e-06Z" fill="#FDC442"/>
</g>
<defs>
<clipPath id="clip0_118_2">
<rect width="794" height="176" fill="white" transform="matrix(-4.37114e-08 -1 -1 4.37114e-08 176 794)"/>
</clipPath>
<clipPath id="clip1_118_2">
<rect width="794" height="176" fill="white" transform="translate(176) rotate(90)"/>
</clipPath>
</defs>
</svg>
