<svg width="32" height="32" viewBox="0 0 32 32" fill="none" xmlns="http://www.w3.org/2000/svg">
<g clip-path="url(#clip0_180_6)">
<path d="M22.6683 1.20625L19.6433 4.23125L27.7683 12.3563L30.7933 9.33125C32.3558 7.76875 32.3558 5.2375 30.7933 3.675L28.3308 1.20625C26.7683 -0.356247 24.2371 -0.356247 22.6746 1.20625H22.6683ZM18.2308 5.64375L3.66207 20.2188C3.01207 20.8688 2.53707 21.675 2.27457 22.5563L0.0620668 30.075C-0.0941832 30.6063 0.0495668 31.175 0.437067 31.5625C0.824567 31.95 1.39332 32.0938 1.91832 31.9438L9.43707 29.7313C10.3183 29.4688 11.1246 28.9938 11.7746 28.3438L26.3558 13.7688L18.2308 5.64375Z" fill="#212B3E"/>
</g>
<defs>
<clipPath id="clip0_180_6">
<rect width="32" height="32" fill="white"/>
</clipPath>
</defs>
</svg>
