<svg width="47" height="47" viewBox="0 0 47 47" fill="none" xmlns="http://www.w3.org/2000/svg">
<g clip-path="url(#clip0_66_16)">
<path d="M47 23.5C47 10.5199 36.4801 0 23.5 0C10.5199 0 0 10.5199 0 23.5C0 34.5156 7.5916 43.7687 17.827 46.3115V30.6785H12.9801V23.5H17.827V20.4064C17.827 12.4109 21.4438 8.70234 29.3016 8.70234C30.7887 8.70234 33.359 8.99609 34.4146 9.28984V15.7891C33.8639 15.734 32.9 15.6973 31.6975 15.6973C27.842 15.6973 26.3549 17.1568 26.3549 20.948V23.5H34.0291L32.7072 30.6785H26.3457V46.8256C37.9855 45.4211 47 35.5162 47 23.5Z" fill="#FDC442"/>
</g>
<defs>
<clipPath id="clip0_66_16">
<rect width="47" height="47" fill="white"/>
</clipPath>
</defs>
</svg>
