<svg width="85" height="85" viewBox="0 0 85 85" fill="none" xmlns="http://www.w3.org/2000/svg">
<g clip-path="url(#clip0_545_4)">
<path d="M85 42.5C85 31.2283 80.5223 20.4183 72.552 12.448C64.5817 4.47767 53.7717 0 42.5 0C31.2283 0 20.4183 4.47767 12.448 12.448C4.47767 20.4183 0 31.2283 0 42.5C0 53.7717 4.47767 64.5817 12.448 72.552C20.4183 80.5223 31.2283 85 42.5 85C53.7717 85 64.5817 80.5223 72.552 72.552C80.5223 64.5817 85 53.7717 85 42.5ZM44.9902 22.4121C46.5508 20.8516 49.0742 20.8516 50.6182 22.4121C52.1621 23.9727 52.1787 26.4961 50.6182 28.04L36.1748 42.4834L50.6182 56.9268C52.1787 58.4873 52.1787 61.0107 50.6182 62.5547C49.0576 64.0986 46.5342 64.1152 44.9902 62.5547L27.7246 45.3223C26.1641 43.7617 26.1641 41.2383 27.7246 39.6943L44.9902 22.4121Z" fill="#212B3E"/>
</g>
<defs>
<clipPath id="clip0_545_4">
<rect width="85" height="85" fill="white"/>
</clipPath>
</defs>
</svg>
