<svg width="80" height="72" viewBox="0 0 80 72" fill="none" xmlns="http://www.w3.org/2000/svg">
<g clip-path="url(#clip0_544_2)">
<path d="M79.972 35.9297C79.972 38.4609 77.8887 40.4438 75.5276 40.4438H71.0831L71.1803 62.9719C71.1803 63.3516 71.1526 63.7312 71.1109 64.1109V66.3891C71.1109 69.4969 68.6248 72.0141 65.5553 72.0141H63.3331C63.1803 72.0141 63.0276 72.0141 62.8748 72C62.6803 72.0141 62.4859 72.0141 62.2914 72.0141L57.7776 72H54.4442C51.3748 72 48.8887 69.4828 48.8887 66.375V63V54C48.8887 51.5109 46.9026 49.5 44.4442 49.5H35.5553C33.097 49.5 31.1109 51.5109 31.1109 54V63V66.375C31.1109 69.4828 28.6248 72 25.5553 72H22.222H17.7914C17.5831 72 17.3748 71.9859 17.1664 71.9719C16.9998 71.9859 16.8331 72 16.6664 72H14.4442C11.3748 72 8.88867 69.4828 8.88867 66.375V50.625C8.88867 50.4984 8.88867 50.3578 8.90256 50.2313V40.4297H4.45812C1.95812 40.4297 0.0136719 38.4609 0.0136719 35.9156C0.0136719 34.65 0.430339 33.525 1.40256 32.5406L36.9998 1.125C37.972 0.140625 39.0831 0 40.0553 0C41.0276 0 42.1387 0.28125 42.972 0.984375L78.4442 32.5547C79.5553 33.5391 80.1109 34.6641 79.972 35.9297Z" fill="#212B3E"/>
</g>
<defs>
<clipPath id="clip0_544_2">
<rect width="80" height="72" fill="white"/>
</clipPath>
</defs>
</svg>
