<svg width="68" height="68" viewBox="0 0 68 68" fill="none" xmlns="http://www.w3.org/2000/svg">
<path d="M0 12.75C0 8.06172 3.81172 4.25 8.5 4.25H59.5C64.1883 4.25 68 8.06172 68 12.75V55.25C68 59.9383 64.1883 63.75 59.5 63.75H8.5C3.81172 63.75 0 59.9383 0 55.25V12.75ZM43.0047 26.8945C42.407 26.018 41.4242 25.5 40.375 25.5C39.3258 25.5 38.3297 26.018 37.7453 26.8945L26.1906 43.8414L22.6711 39.4453C22.0602 38.6883 21.1437 38.25 20.1875 38.25C19.2313 38.25 18.3016 38.6883 17.7039 39.4453L9.20391 50.0703C8.43359 51.0266 8.2875 52.3414 8.81875 53.4437C9.35 54.5461 10.4656 55.25 11.6875 55.25H24.4375H28.6875H56.3125C57.4945 55.25 58.5836 54.5992 59.1281 53.55C59.6727 52.5008 59.6062 51.2391 58.9422 50.2695L43.0047 26.8945ZM14.875 25.5C16.5658 25.5 18.1873 24.8284 19.3828 23.6328C20.5784 22.4373 21.25 20.8158 21.25 19.125C21.25 17.4342 20.5784 15.8127 19.3828 14.6172C18.1873 13.4217 16.5658 12.75 14.875 12.75C13.1842 12.75 11.5627 13.4217 10.3672 14.6172C9.17165 15.8127 8.5 17.4342 8.5 19.125C8.5 20.8158 9.17165 22.4373 10.3672 23.6328C11.5627 24.8284 13.1842 25.5 14.875 25.5Z" fill="#212B3E"/>
</svg>
