<svg width="41" height="47" viewBox="0 0 41 47" fill="none" xmlns="http://www.w3.org/2000/svg">
<g clip-path="url(#clip0_66_18)">
<path d="M20.5092 12.9433C14.6886 12.9433 9.99378 17.6525 9.99378 23.4908C9.99378 29.3291 14.6886 34.0382 20.5092 34.0382C26.3297 34.0382 31.0246 29.3291 31.0246 23.4908C31.0246 17.6525 26.3297 12.9433 20.5092 12.9433ZM20.5092 30.348C16.7478 30.348 13.6728 27.2728 13.6728 23.4908C13.6728 19.7087 16.7386 16.6335 20.5092 16.6335C24.2797 16.6335 27.3456 19.7087 27.3456 23.4908C27.3456 27.2728 24.2706 30.348 20.5092 30.348ZM33.9074 12.5119C33.9074 13.8796 32.8092 14.972 31.4547 14.972C30.0911 14.972 29.002 13.8705 29.002 12.5119C29.002 11.1533 30.1003 10.0517 31.4547 10.0517C32.8092 10.0517 33.9074 11.1533 33.9074 12.5119ZM40.8719 15.0087C40.7163 11.7132 39.9659 8.79409 37.559 6.38901C35.1612 3.98394 32.2509 3.2312 28.9654 3.06597C25.5793 2.87319 15.4299 2.87319 12.0438 3.06597C8.76744 3.22202 5.85717 3.97476 3.45025 6.37983C1.04333 8.78491 0.302037 11.7041 0.137305 14.9996C-0.0548828 18.396 -0.0548828 28.5763 0.137305 31.9728C0.292885 35.2683 1.04333 38.1875 3.45025 40.5925C5.85717 42.9976 8.75829 43.7503 12.0438 43.9156C15.4299 44.1084 25.5793 44.1084 28.9654 43.9156C32.2509 43.7595 35.1612 43.0068 37.559 40.5925C39.9567 38.1875 40.7072 35.2683 40.8719 31.9728C41.0641 28.5763 41.0641 18.4052 40.8719 15.0087ZM36.4973 35.6171C35.7835 37.4164 34.4016 38.8025 32.5987 39.5277C29.8989 40.6017 23.4927 40.3539 20.5092 40.3539C17.5257 40.3539 11.1103 40.5925 8.41967 39.5277C6.62592 38.8117 5.244 37.4255 4.52101 35.6171C3.45025 32.9091 3.69735 26.4834 3.69735 23.4908C3.69735 20.4982 3.4594 14.0632 4.52101 11.3644C5.23485 9.56519 6.61677 8.17905 8.41967 7.45386C11.1194 6.37983 17.5257 6.62769 20.5092 6.62769C23.4927 6.62769 29.9081 6.38901 32.5987 7.45386C34.3924 8.16987 35.7744 9.55601 36.4973 11.3644C37.5681 14.0724 37.321 20.4982 37.321 23.4908C37.321 26.4834 37.5681 32.9183 36.4973 35.6171Z" fill="#FDC442"/>
</g>
<defs>
<clipPath id="clip0_66_18">
<rect width="41" height="47" fill="white"/>
</clipPath>
</defs>
</svg>
