<svg width="83" height="71" viewBox="0 0 83 71" fill="none" xmlns="http://www.w3.org/2000/svg">
<rect x="0.5" y="0.5" width="82" height="70" rx="9.5" stroke="#212B3E"/>
<path d="M9 11.6667C9 9.08542 11.1067 7 13.7143 7H70.2857C72.8933 7 75 9.08542 75 11.6667C75 14.2479 72.8933 16.3333 70.2857 16.3333H13.7143C11.1067 16.3333 9 14.2479 9 11.6667ZM9 35C9 32.4187 11.1067 30.3333 13.7143 30.3333H70.2857C72.8933 30.3333 75 32.4187 75 35C75 37.5812 72.8933 39.6667 70.2857 39.6667H13.7143C11.1067 39.6667 9 37.5812 9 35ZM75 58.3333C75 60.9146 72.8933 63 70.2857 63H13.7143C11.1067 63 9 60.9146 9 58.3333C9 55.7521 11.1067 53.6667 13.7143 53.6667H70.2857C72.8933 53.6667 75 55.7521 75 58.3333Z" fill="#212B3E"/>
</svg>
