<svg width="53" height="53" viewBox="0 0 53 53" fill="none" xmlns="http://www.w3.org/2000/svg">
<rect width="53" height="53" rx="26.5" fill="#BE3535"/>
<path d="M36.8443 18.8443C37.7232 17.9654 37.7232 16.5381 36.8443 15.6592C35.9654 14.7803 34.5381 14.7803 33.6592 15.6592L26.2553 23.0701L18.8443 15.6662C17.9654 14.7873 16.5381 14.7873 15.6592 15.6662C14.7803 16.5451 14.7803 17.9725 15.6592 18.8514L23.0701 26.2553L15.6662 33.6662C14.7873 34.5451 14.7873 35.9725 15.6662 36.8514C16.5451 37.7303 17.9725 37.7303 18.8514 36.8514L26.2553 29.4404L33.6662 36.8443C34.5451 37.7232 35.9725 37.7232 36.8514 36.8443C37.7303 35.9654 37.7303 34.5381 36.8514 33.6592L29.4404 26.2553L36.8443 18.8443Z" fill="white"/>
</svg>
