<svg width="77" height="77" viewBox="0 0 77 77" fill="none" xmlns="http://www.w3.org/2000/svg">
<g clip-path="url(#clip0_372_17)">
<path d="M45.7188 7.21875C45.7187 5.30422 44.9582 3.4681 43.6044 2.11432C42.2506 0.760545 40.4145 0 38.5 0C36.5855 0 34.7494 0.760545 33.3956 2.11432C32.0418 3.4681 31.2812 5.30422 31.2812 7.21875C31.2812 9.13328 32.0418 10.9694 33.3956 12.3232C34.7494 13.677 36.5855 14.4375 38.5 14.4375C40.4145 14.4375 42.2506 13.677 43.6044 12.3232C44.9582 10.9694 45.7187 9.13328 45.7188 7.21875ZM45.7188 69.7812C45.7187 67.8667 44.9582 66.0306 43.6044 64.6768C42.2506 63.323 40.4145 62.5625 38.5 62.5625C36.5855 62.5625 34.7494 63.323 33.3956 64.6768C32.0418 66.0306 31.2812 67.8667 31.2812 69.7812C31.2812 71.6958 32.0418 73.5319 33.3956 74.8857C34.7494 76.2395 36.5855 77 38.5 77C40.4145 77 42.2506 76.2395 43.6044 74.8857C44.9582 73.5319 45.7187 71.6958 45.7188 69.7812ZM7.21875 45.7188C9.13328 45.7187 10.9694 44.9582 12.3232 43.6044C13.677 42.2506 14.4375 40.4145 14.4375 38.5C14.4375 36.5855 13.677 34.7494 12.3232 33.3956C10.9694 32.0418 9.13328 31.2812 7.21875 31.2812C5.30422 31.2812 3.4681 32.0418 2.11432 33.3956C0.760545 34.7494 0 36.5855 0 38.5C0 40.4145 0.760545 42.2506 2.11432 43.6044C3.4681 44.9582 5.30422 45.7188 7.21875 45.7188ZM77 38.5C77 36.5855 76.2395 34.7494 74.8857 33.3956C73.5319 32.0418 71.6958 31.2812 69.7812 31.2812C67.8667 31.2812 66.0306 32.0418 64.6768 33.3956C63.323 34.7494 62.5625 36.5855 62.5625 38.5C62.5625 40.4145 63.323 42.2506 64.6768 43.6044C66.0306 44.9582 67.8667 45.7187 69.7812 45.7188C71.6958 45.7187 73.5319 44.9582 74.8857 43.6044C76.2395 42.2506 77 40.4145 77 38.5ZM21.4908 65.7207C22.1613 65.0502 22.6932 64.2542 23.0561 63.3782C23.4189 62.5021 23.6057 61.5632 23.6057 60.6149C23.6057 59.6667 23.4189 58.7278 23.0561 57.8517C22.6932 56.9757 22.1613 56.1797 21.4908 55.5092C20.8203 54.8387 20.0243 54.3068 19.1483 53.9439C18.2722 53.5811 17.3333 53.3943 16.3851 53.3943C14.47 53.3943 12.6334 54.155 11.2793 55.5092C9.92516 56.8633 9.16442 58.6999 9.16442 60.6149C9.16442 62.53 9.92516 64.3666 11.2793 65.7207C12.6334 67.0748 14.47 67.8356 16.3851 67.8356C18.3001 67.8356 20.1367 67.0748 21.4908 65.7207ZM21.4908 21.4758C22.1946 20.8131 22.7582 20.0158 23.148 19.1312C23.5378 18.2466 23.746 17.2926 23.7602 16.3261C23.7744 15.3595 23.5943 14.3999 23.2306 13.5042C22.8669 12.6085 22.327 11.795 21.6429 11.112C20.9588 10.4289 20.1445 9.89019 19.2483 9.5278C18.3521 9.16542 17.3923 8.98672 16.4257 9.00233C15.4591 9.01794 14.5055 9.22753 13.6215 9.61866C12.7374 10.0098 11.941 10.5745 11.2793 11.2793C9.92516 12.6334 9.16442 14.47 9.16442 16.3851C9.16442 18.3001 9.92516 20.1367 11.2793 21.4908C12.6334 22.845 14.47 23.6057 16.3851 23.6057C18.3001 23.6057 20.1367 22.845 21.4908 21.4908V21.4758ZM55.5092 65.7207C56.1797 66.3912 56.9757 66.9231 57.8517 67.2859C58.7278 67.6488 59.6667 67.8356 60.6149 67.8356C61.5632 67.8356 62.5021 67.6488 63.3782 67.2859C64.2542 66.9231 65.0502 66.3912 65.7207 65.7207C66.3912 65.0502 66.9231 64.2542 67.2859 63.3782C67.6488 62.5021 67.8356 61.5632 67.8356 60.6149C67.8356 59.6667 67.6488 58.7278 67.2859 57.8517C66.9231 56.9757 66.3912 56.1797 65.7207 55.5092C65.0502 54.8387 64.2542 54.3068 63.3782 53.9439C62.5021 53.5811 61.5632 53.3943 60.6149 53.3943C59.6667 53.3943 58.7278 53.5811 57.8517 53.9439C56.9757 54.3068 56.1797 54.8387 55.5092 55.5092C54.8387 56.1797 54.3068 56.9757 53.9439 57.8517C53.5811 58.7278 53.3943 59.6667 53.3943 60.6149C53.3943 61.5632 53.5811 62.5021 53.9439 63.3782C54.3068 64.2542 54.8387 65.0502 55.5092 65.7207Z" fill="#212B3E"/>
</g>
<defs>
<clipPath id="clip0_372_17">
<rect width="77" height="77" fill="white"/>
</clipPath>
</defs>
</svg>
