<svg width="67" height="67" viewBox="0 0 67 67" fill="none" xmlns="http://www.w3.org/2000/svg">
<path d="M6.87012 57.6567C5.62695 58.6905 3.88652 58.926 2.40781 58.2325C0.929101 57.5389 0 56.0602 0 54.4375V12.5625C0 10.9399 0.942187 9.46116 2.40781 8.76761C3.87344 8.07405 5.61387 8.29652 6.87012 9.34339L29.3125 28.0432V33.5V38.9569L6.87012 57.6567ZM33.5 46.0625V33.5V16.75V12.5625C33.5 10.9399 34.4422 9.46116 35.9078 8.76761C37.3734 8.07405 39.1139 8.29652 40.3701 9.34339L65.4951 30.2809C66.4504 31.0791 67 32.2569 67 33.5C67 34.7432 66.4504 35.9209 65.4951 36.7192L40.3701 57.6567C39.127 58.6905 37.3865 58.926 35.9078 58.2325C34.4291 57.5389 33.5 56.0602 33.5 54.4375V46.0625Z" fill="#212B3E"/>
</svg>
