<svg width="44" height="44" viewBox="0 0 44 44" fill="none" xmlns="http://www.w3.org/2000/svg">
<path d="M4.51172 37.864C3.69531 38.5429 2.55234 38.6976 1.58125 38.2422C0.610156 37.7867 0 36.8156 0 35.75V8.24998C0 7.18435 0.61875 6.21326 1.58125 5.75779C2.54375 5.30232 3.68672 5.44841 4.51172 6.13592L19.25 18.4164V22V25.5836L4.51172 37.864ZM22 30.25V22V11V8.24998C22 7.18435 22.6187 6.21326 23.5812 5.75779C24.5437 5.30232 25.6867 5.44841 26.5117 6.13592L43.0117 19.8859C43.6391 20.4101 44 21.1836 44 22C44 22.8164 43.6391 23.5898 43.0117 24.114L26.5117 37.864C25.6953 38.5429 24.5523 38.6976 23.5812 38.2422C22.6102 37.7867 22 36.8156 22 35.75V30.25Z" fill="#FDC442"/>
</svg>
