<svg width="72" height="57" viewBox="0 0 72 57" fill="none" xmlns="http://www.w3.org/2000/svg">
<path d="M60.03 3.61817C67.3312 9.48516 72 18.4582 72 28.5C72 38.5418 67.3312 47.5037 60.03 53.3818C58.8712 54.317 57.1725 54.1389 56.2275 52.9922C55.2825 51.8455 55.4625 50.1645 56.6212 49.2293C62.7187 44.3309 66.6 36.8719 66.6 28.5C66.6 20.1281 62.7187 12.6691 56.6212 7.75958C55.4625 6.82442 55.2937 5.14336 56.2275 3.99669C57.1612 2.85001 58.8712 2.68301 60.03 3.60704V3.61817ZM53.2238 11.9121C58.0837 15.8309 61.2 21.8092 61.2 28.5C61.2 35.1908 58.0837 41.1691 53.2238 45.0879C52.065 46.0231 50.3662 45.8449 49.4212 44.6982C48.4762 43.5516 48.6562 41.8705 49.815 40.9354C53.4712 37.9963 55.8 33.5209 55.8 28.5C55.8 23.4791 53.4712 19.0037 49.815 16.0535C48.6562 15.1184 48.4875 13.4373 49.4212 12.2906C50.355 11.144 52.065 10.977 53.2238 11.901V11.9121ZM46.4175 20.2061C48.8363 22.1654 50.4 25.149 50.4 28.5C50.4 31.851 48.8363 34.8346 46.4175 36.794C45.2588 37.7291 43.56 37.551 42.615 36.4043C41.67 35.2576 41.85 33.5766 43.0087 32.6414C44.2237 31.6617 45 30.1699 45 28.5C45 26.8301 44.2237 25.3383 43.0087 24.3475C41.85 23.4123 41.6812 21.7313 42.615 20.5846C43.5487 19.4379 45.2588 19.2709 46.4175 20.1949V20.2061ZM33.8737 3.87422C35.1675 4.45313 36 5.72227 36 7.12501V49.875C36 51.2777 35.1675 52.5469 33.8737 53.1258C32.58 53.7047 31.0613 53.4709 30.0037 52.5357L14.8275 39.1875H7.2C3.22875 39.1875 0 35.9924 0 32.0625V24.9375C0 21.0076 3.22875 17.8125 7.2 17.8125H14.8275L30.0037 4.46426C31.0613 3.52911 32.58 3.30645 33.8737 3.87422Z" fill="white"/>
</svg>
