<svg width="41" height="47" viewBox="0 0 41 47" fill="none" xmlns="http://www.w3.org/2000/svg">
<g clip-path="url(#clip0_66_14)">
<path d="M41 19.2682C36.9695 19.2768 33.0382 18.0148 29.7616 15.6605V32.0738C29.7607 35.1136 28.8344 38.0807 27.1068 40.5782C25.3791 43.0757 22.9324 44.9846 20.0939 46.0495C17.2554 47.1144 14.1604 47.2846 11.2228 46.5374C8.28519 45.7901 5.6451 44.161 3.65558 41.8679C1.66607 39.5749 0.421983 36.7272 0.0897192 33.7057C-0.242545 30.6842 0.35285 27.633 1.79628 24.9601C3.2397 22.2872 5.46234 20.1201 8.16693 18.7486C10.8715 17.3771 13.9291 16.8666 16.9308 17.2854V25.5379C15.5583 25.1045 14.0843 25.1172 12.7194 25.5741C11.3545 26.031 10.1684 26.9089 9.33052 28.0822C8.49261 29.2556 8.04573 30.6645 8.05369 32.1078C8.06164 33.5511 8.52402 34.9549 9.37481 36.1189C10.2256 37.2829 11.4213 38.1476 12.7912 38.5893C14.161 39.0311 15.635 39.0274 17.0027 38.5788C18.3704 38.1303 19.5618 37.2597 20.4068 36.0915C21.2518 34.9233 21.7072 33.5171 21.708 32.0738V0H29.7616C29.7571 0.683211 29.8153 1.36539 29.9355 2.03789C30.2156 3.53694 30.7975 4.96295 31.6456 6.22878C32.4938 7.49461 33.5903 8.57367 34.8683 9.4C36.6875 10.6051 38.8199 11.2468 41 11.2451V19.2682Z" fill="#FDC442"/>
</g>
<defs>
<clipPath id="clip0_66_14">
<rect width="41" height="47" fill="white"/>
</clipPath>
</defs>
</svg>
