<svg width="28" height="32" viewBox="0 0 28 32" fill="none" xmlns="http://www.w3.org/2000/svg">
<g clip-path="url(#clip0_180_8)">
<path d="M8.45 1.10625L8 2H2C0.89375 2 0 2.89375 0 4C0 5.10625 0.89375 6 2 6H26C27.1063 6 28 5.10625 28 4C28 2.89375 27.1063 2 26 2H20L19.55 1.10625C19.2125 0.425 18.5188 0 17.7625 0H10.2375C9.48125 0 8.7875 0.425 8.45 1.10625ZM26 8H2L3.325 29.1875C3.425 30.7687 4.7375 32 6.31875 32H21.6812C23.2625 32 24.575 30.7687 24.675 29.1875L26 8Z" fill="#212B3E"/>
</g>
<defs>
<clipPath id="clip0_180_8">
<rect width="28" height="32" fill="white"/>
</clipPath>
</defs>
</svg>
