<svg width="40" height="37" viewBox="0 0 40 37" fill="none" xmlns="http://www.w3.org/2000/svg">
<path d="M34.0089 5.37656C30.2679 1.90781 25.2857 0 19.9911 0C9.0625 0 0.169643 8.22589 0.169643 18.3348C0.169643 21.5641 1.08036 24.719 2.8125 27.5022L0 37L10.5089 34.448C13.4018 35.9098 16.6607 36.6779 19.9821 36.6779H19.9911C30.9107 36.6779 40 28.452 40 18.3431C40 13.4455 37.75 8.84531 34.0089 5.37656ZM19.9911 33.5891C17.0268 33.5891 14.125 32.854 11.5982 31.4665L11 31.1362L4.76786 32.6475L6.42857 27.0232L6.03571 26.4451C4.38393 24.017 3.51786 21.2172 3.51786 18.3348C3.51786 9.93549 10.9107 3.0971 20 3.0971C24.4018 3.0971 28.5357 4.68281 31.6429 7.56518C34.75 10.4475 36.6607 14.2714 36.6518 18.3431C36.6518 26.7507 29.0714 33.5891 19.9911 33.5891ZM29.0268 22.1752C28.5357 21.944 26.0982 20.8373 25.6429 20.6886C25.1875 20.5317 24.8571 20.4574 24.5268 20.9199C24.1964 21.3824 23.25 22.4065 22.9554 22.7203C22.6696 23.0259 22.375 23.0672 21.8839 22.8359C18.9732 21.4897 17.0625 20.4326 15.1429 17.385C14.6339 16.5757 15.6518 16.6335 16.5982 14.8826C16.7589 14.577 16.6786 14.3127 16.5536 14.0815C16.4286 13.8502 15.4375 11.5955 15.0268 10.6788C14.625 9.78683 14.2143 9.91071 13.9107 9.8942C13.625 9.87768 13.2946 9.87768 12.9643 9.87768C12.6339 9.87768 12.0982 9.9933 11.6429 10.4475C11.1875 10.91 9.91071 12.0167 9.91071 14.2714C9.91071 16.5261 11.6875 18.7065 11.9286 19.0121C12.1786 19.3176 15.4196 23.9426 20.3929 25.933C23.5357 27.1884 24.7679 27.2958 26.3393 27.081C27.2946 26.9489 29.2679 25.9743 29.6786 24.9007C30.0893 23.827 30.0893 22.9103 29.9643 22.7203C29.8482 22.5138 29.5179 22.3982 29.0268 22.1752Z" fill="#F9F9F9"/>
</svg>
