<svg width="617" height="360" viewBox="0 0 617 360" fill="none" xmlns="http://www.w3.org/2000/svg">
<rect width="482" height="361" transform="translate(135 -1)" fill="#25D366"/>
<path d="M431.335 128.07C416.558 114.477 396.879 107 375.965 107C332.797 107 297.67 139.237 297.67 178.853C297.67 191.508 301.267 203.872 308.109 214.779L297 252L338.51 241.999C349.937 247.728 362.81 250.738 375.929 250.738H375.965C419.097 250.738 455 218.501 455 178.885C455 159.692 446.113 141.664 431.335 128.07ZM375.965 238.633C364.256 238.633 352.794 235.752 342.813 230.315L340.45 229.02L315.833 234.943L322.393 212.902L320.841 210.636C314.317 201.121 310.896 190.148 310.896 178.853C310.896 145.936 340.097 119.137 376 119.137C393.387 119.137 409.716 125.352 421.989 136.647C434.262 147.943 441.81 162.929 441.775 178.885C441.775 211.834 411.832 238.633 375.965 238.633ZM411.656 193.903C409.716 192.997 400.088 188.66 398.289 188.077C396.491 187.462 395.186 187.171 393.881 188.983C392.576 190.796 388.838 194.809 387.674 196.039C386.545 197.237 385.381 197.398 383.442 196.492C371.944 191.217 364.397 187.074 356.814 175.131C354.804 171.959 358.825 172.185 362.563 165.324C363.198 164.126 362.88 163.09 362.387 162.184C361.893 161.278 357.978 152.442 356.356 148.849C354.769 145.354 353.146 145.839 351.947 145.775C350.819 145.71 349.514 145.71 348.209 145.71C346.904 145.71 344.788 146.163 342.989 147.943C341.191 149.756 336.147 154.093 336.147 162.929C336.147 171.765 343.166 180.309 344.118 181.507C345.105 182.704 357.908 200.829 377.552 208.629C389.966 213.549 394.833 213.97 401.04 213.128C404.814 212.61 412.608 208.791 414.23 204.584C415.853 200.376 415.853 196.783 415.359 196.039C414.9 195.23 413.596 194.777 411.656 193.903Z" fill="#F9F9F9"/>
<g clip-path="url(#clip0_619_2)">
<path d="M81.0358 360L74.3208 340C67.6057 320 54.1757 280 56.4001 240C58.7923 200 76.4192 160 92.2415 120C107.896 80.0001 121.326 40.0001 128.041 20.0001L134.756 6.30766e-05L134.756 20.0001C134.756 40.0001 134.756 80.0001 134.756 120C134.756 160 134.756 200 134.756 240C134.756 280 134.756 320 134.756 340L134.756 360L81.0358 360Z" fill="#212B3E" fill-opacity="0.89"/>
</g>
<g clip-path="url(#clip1_619_2)">
<path d="M81.1264 -2.67662e-06L74.3658 20C67.6053 40 54.0842 80 56.3236 120C58.732 160 76.4785 200 92.4081 240C108.169 280 121.69 320 128.45 340L135.211 360L135.211 340C135.211 320 135.211 280 135.211 240C135.211 200 135.211 160 135.211 120C135.211 80 135.211 40 135.211 20L135.211 -8.45555e-06L81.1264 -2.67662e-06Z" fill="#25D366"/>
</g>
<path d="M617 287.8L598.367 295.921C579.733 304.194 542.467 320.206 505.2 330.5C467.933 340.794 430.667 344.606 393.4 342.7C356.133 340.794 318.867 332.406 281.6 322.379C244.333 312.2 207.067 300 169.8 304.079C132.533 308.006 95.2667 328.594 76.6334 338.621L58 348.8V361H76.6334C95.2667 361 132.533 361 169.8 361C207.067 361 244.333 361 281.6 361C318.867 361 356.133 361 393.4 361C430.667 361 467.933 361 505.2 361C542.467 361 579.733 361 598.367 361H617V287.8Z" fill="#F9F9F9"/>
<defs>
<clipPath id="clip0_619_2">
<rect width="360" height="134.3" fill="white" transform="translate(0.455078 360) rotate(-90)"/>
</clipPath>
<clipPath id="clip1_619_2">
<rect width="360" height="135.211" fill="white" transform="matrix(1.78819e-08 1 1 -1.0685e-07 0 0)"/>
</clipPath>
</defs>
</svg>
