<svg width="1128" height="189" viewBox="0 0 1128 189" fill="none" xmlns="http://www.w3.org/2000/svg">
<g clip-path="url(#clip0_634_1250)">
<path d="M1128 124.974L1065.33 130.279C1002.67 135.585 877.333 146.196 752 144.438C626.667 142.548 501.333 128.621 376 116.12C250.667 103.752 125.334 93.1406 62.6669 87.8351L0.00022727 82.5296L62.6669 82.5296C125.334 82.5296 250.667 82.5296 376 82.5296C501.333 82.5296 626.667 82.5296 752 82.5296C877.333 82.5297 1002.67 82.5297 1065.33 82.5297L1128 82.5297L1128 124.974Z" fill="#212B3E" fill-opacity="0.89"/>
</g>
<rect width="1128" height="84" fill="#25D366"/>
<path d="M587.815 19.1547C581.455 13.2484 572.986 10 563.985 10C545.406 10 530.288 24.0062 530.288 41.2188C530.288 46.7172 531.837 52.0891 534.781 56.8281L530 73L547.865 68.6547C552.783 71.1438 558.323 72.4516 563.97 72.4516H563.985C582.548 72.4516 598 58.4453 598 41.2328C598 32.8938 594.175 25.0609 587.815 19.1547ZM563.985 67.1922C558.946 67.1922 554.012 65.9406 549.717 63.5781L548.7 63.0156L538.105 65.5891L540.929 56.0125L540.261 55.0281C537.453 50.8938 535.98 46.1266 535.98 41.2188C535.98 26.9172 548.548 15.2734 564 15.2734C571.483 15.2734 578.511 17.9734 583.793 22.8812C589.075 27.7891 592.323 34.3 592.308 41.2328C592.308 55.5484 579.421 67.1922 563.985 67.1922ZM579.346 47.7578C578.511 47.3641 574.367 45.4797 573.593 45.2266C572.819 44.9594 572.257 44.8328 571.696 45.6203C571.134 46.4078 569.525 48.1516 569.024 48.6859C568.538 49.2063 568.038 49.2766 567.203 48.8828C562.254 46.5906 559.006 44.7906 555.743 39.6016C554.878 38.2234 556.608 38.3219 558.217 35.3406C558.49 34.8203 558.354 34.3703 558.141 33.9766C557.929 33.5828 556.244 29.7438 555.546 28.1828C554.863 26.6641 554.164 26.875 553.648 26.8469C553.163 26.8188 552.601 26.8188 552.039 26.8188C551.478 26.8188 550.567 27.0156 549.793 27.7891C549.019 28.5766 546.848 30.4609 546.848 34.3C546.848 38.1391 549.869 41.8516 550.279 42.3719C550.704 42.8922 556.213 50.7672 564.668 54.1562C570.011 56.2937 572.105 56.4766 574.777 56.1109C576.401 55.8859 579.755 54.2266 580.454 52.3984C581.152 50.5703 581.152 49.0094 580.939 48.6859C580.742 48.3344 580.18 48.1375 579.346 47.7578Z" fill="#F9F9F9"/>
<g clip-path="url(#clip1_634_1250)">
<path d="M-1.58164e-06 124.902L62.6667 130.243C125.333 135.585 250.667 146.268 376 144.499C501.333 142.596 626.667 128.574 752 115.988C877.333 103.536 1002.67 92.853 1065.33 87.5115L1128 82.17L1065.33 82.17C1002.67 82.17 877.333 82.17 752 82.17C626.667 82.17 501.333 82.17 376 82.17C250.667 82.17 125.333 82.17 62.6667 82.17L-4.99646e-06 82.17L-1.58164e-06 124.902Z" fill="#25D366"/>
</g>
<defs>
<clipPath id="clip0_634_1250">
<rect width="1128" height="106.11" fill="white" transform="translate(1128 188.64) rotate(-180)"/>
</clipPath>
<clipPath id="clip1_634_1250">
<rect width="1128" height="106.83" fill="white" transform="matrix(1 2.04078e-08 -7.99126e-08 -1 0 189)"/>
</clipPath>
</defs>
</svg>
