<svg width="41" height="43" viewBox="0 0 41 43" fill="none" xmlns="http://www.w3.org/2000/svg">
<path d="M34.8591 8.15488C31.0246 4.62754 25.9179 2.6875 20.4908 2.6875C9.28906 2.6875 0.173884 11.0523 0.173884 21.332C0.173884 24.6158 1.10737 27.824 2.88281 30.6543L0 40.3125L10.7717 37.7174C13.7368 39.2039 17.0772 39.985 20.4817 39.985H20.4908C31.6835 39.985 41 31.6201 41 21.3404C41 16.3602 38.6937 11.6822 34.8591 8.15488ZM20.4908 36.8439C17.4525 36.8439 14.4781 36.0965 11.8882 34.6855L11.275 34.3496L4.88705 35.8865L6.58929 30.1672L6.18661 29.5793C4.49353 27.1102 3.6058 24.2631 3.6058 21.332C3.6058 12.7908 11.1835 5.83691 20.5 5.83691C25.0118 5.83691 29.2491 7.44941 32.4339 10.3805C35.6188 13.3115 37.5772 17.2 37.5681 21.3404C37.5681 29.89 29.7982 36.8439 20.4908 36.8439ZM29.7525 25.2373C29.2491 25.0021 26.7507 23.8768 26.2839 23.7256C25.8172 23.566 25.4786 23.4904 25.14 23.9607C24.8013 24.4311 23.8313 25.4725 23.5292 25.7916C23.2364 26.1023 22.9344 26.1443 22.431 25.9092C19.4475 24.5402 17.4891 23.4652 15.5214 20.3662C14.9998 19.5432 16.0431 19.602 17.0132 17.8215C17.1779 17.5107 17.0955 17.242 16.9674 17.0068C16.8393 16.7717 15.8234 14.4789 15.4025 13.5467C14.9906 12.6396 14.5696 12.7656 14.2585 12.7488C13.9656 12.732 13.627 12.732 13.2884 12.732C12.9498 12.732 12.4007 12.8496 11.9339 13.3115C11.4672 13.7818 10.1585 14.9072 10.1585 17.2C10.1585 19.4928 11.9797 21.71 12.2268 22.0207C12.483 22.3314 15.8051 27.0346 20.9027 29.0586C24.1241 30.3352 25.3871 30.4443 26.9978 30.226C27.977 30.0916 29.9996 29.1006 30.4205 28.0088C30.8415 26.917 30.8415 25.9848 30.7134 25.7916C30.5944 25.5816 30.2558 25.4641 29.7525 25.2373Z" fill="#FDC442"/>
</svg>
