<svg width="55" height="55" viewBox="0 0 55 55" fill="none" xmlns="http://www.w3.org/2000/svg">
<path d="M53.3722 9.39286C55.5197 7.24543 55.5197 3.758 53.3722 1.61057C51.2248 -0.536858 47.7374 -0.536858 45.59 1.61057L27.5 19.7177L9.39286 1.62775C7.24543 -0.519679 3.758 -0.519679 1.61057 1.62775C-0.536858 3.77518 -0.536858 7.26261 1.61057 9.41004L19.7177 27.5L1.62775 45.6071C-0.519678 47.7546 -0.519678 51.242 1.62775 53.3894C3.77518 55.5369 7.26261 55.5369 9.41004 53.3894L27.5 35.2823L45.6071 53.3722C47.7546 55.5197 51.242 55.5197 53.3894 53.3722C55.5369 51.2248 55.5369 47.7374 53.3894 45.59L35.2823 27.5L53.3722 9.39286Z" fill="#FDC442"/>
</svg>
