<svg width="83" height="71" viewBox="0 0 83 71" fill="none" xmlns="http://www.w3.org/2000/svg">
<rect x="0.5" y="0.5" width="82" height="70" rx="9.5" stroke="#212B3E"/>
<path d="M67.3722 17.3929C69.5197 15.2454 69.5197 11.758 67.3722 9.61057C65.2248 7.46314 61.7374 7.46314 59.59 9.61057L41.5 27.7177L23.3929 9.62775C21.2454 7.48032 17.758 7.48032 15.6106 9.62775C13.4631 11.7752 13.4631 15.2626 15.6106 17.41L33.7177 35.5L15.6278 53.6071C13.4803 55.7546 13.4803 59.242 15.6278 61.3894C17.7752 63.5369 21.2626 63.5369 23.41 61.3894L41.5 43.2823L59.6071 61.3722C61.7546 63.5197 65.242 63.5197 67.3894 61.3722C69.5369 59.2248 69.5369 55.7374 67.3894 53.59L49.2823 35.5L67.3722 17.3929Z" fill="#212B3E"/>
</svg>
