<svg width="55" height="49" viewBox="0 0 55 49" fill="none" xmlns="http://www.w3.org/2000/svg">
<path d="M52.4887 11.8768C51.8871 9.60859 50.1206 7.82852 47.8767 7.22559C43.809 6.125 27.5 6.125 27.5 6.125C27.5 6.125 11.191 6.125 7.12325 7.22559C4.87933 7.82852 3.11283 9.60859 2.51127 11.8768C1.42273 15.9824 1.42273 24.5383 1.42273 24.5383C1.42273 24.5383 1.42273 33.0941 2.51127 37.1998C3.11283 39.468 4.87933 41.1715 7.12325 41.7744C11.191 42.875 27.5 42.875 27.5 42.875C27.5 42.875 43.809 42.875 47.8767 41.7744C50.1206 41.1715 51.8871 39.4584 52.4887 37.1998C53.5772 33.0941 53.5772 24.5383 53.5772 24.5383C53.5772 24.5383 53.5772 15.9824 52.4887 11.8768ZM22.1719 32.3094V16.7672L35.7977 24.5383L22.1719 32.3094Z" fill="#FDC442"/>
</svg>
